<svg width="90" height="22" viewBox="0 0 90 22" fill="none" xmlns="http://www.w3.org/2000/svg">
<g clip-path="url(#clip0_680_17121)">
<g filter="url(#filter0_di_680_17121)">
<path fill-rule="evenodd" clip-rule="evenodd" d="M41 0C39.3431 0 38.0294 1.3556 37.7223 2.98374C36.3245 10.3944 29.8169 16 22 16C14.1831 16 7.67549 10.3944 6.27772 2.98374C5.97062 1.3556 4.65686 0 3 0H-221C-230.389 0 -238 7.61116 -238 17V139C-238 148.389 -230.389 156 -221 156H3C4.65685 156 5.97062 154.644 6.27772 153.016C7.67549 145.606 14.1831 140 22 140C29.8169 140 36.3245 145.606 37.7223 153.016C38.0294 154.644 39.3431 156 41 156H73C82.3888 156 90 148.389 90 139V17C90 7.61116 82.3888 0 73 0H41Z" fill="white"/>
</g>
</g>
<defs>
<filter id="filter0_di_680_17121" x="-250" y="-4" width="352" height="180" filterUnits="userSpaceOnUse" color-interpolation-filters="sRGB">
<feFlood flood-opacity="0" result="BackgroundImageFix"/>
<feColorMatrix in="SourceAlpha" type="matrix" values="0 0 0 0 0 0 0 0 0 0 0 0 0 0 0 0 0 0 127 0" result="hardAlpha"/>
<feOffset dy="8"/>
<feGaussianBlur stdDeviation="6"/>
<feComposite in2="hardAlpha" operator="out"/>
<feColorMatrix type="matrix" values="0 0 0 0 0 0 0 0 0 0 0 0 0 0 0 0 0 0 0.02 0"/>
<feBlend mode="normal" in2="BackgroundImageFix" result="effect1_dropShadow_680_17121"/>
<feBlend mode="normal" in="SourceGraphic" in2="effect1_dropShadow_680_17121" result="shape"/>
<feColorMatrix in="SourceAlpha" type="matrix" values="0 0 0 0 0 0 0 0 0 0 0 0 0 0 0 0 0 0 127 0" result="hardAlpha"/>
<feOffset dy="-1"/>
<feGaussianBlur stdDeviation="0.5"/>
<feComposite in2="hardAlpha" operator="arithmetic" k2="-1" k3="1"/>
<feColorMatrix type="matrix" values="0 0 0 0 0 0 0 0 0 0 0 0 0 0 0 0 0 0 0.09 0"/>
<feBlend mode="normal" in2="shape" result="effect2_innerShadow_680_17121"/>
</filter>
<clipPath id="clip0_680_17121">
<rect width="90" height="22" fill="white"/>
</clipPath>
</defs>
</svg>
