<svg width="24" height="24" viewBox="0 0 24 24" fill="none" xmlns="http://www.w3.org/2000/svg">
<path fill-rule="evenodd" clip-rule="evenodd" d="M9.6184 2H6.98827H3.66602V6.99492V20.4191C3.66602 21.2483 4.78506 21.7178 5.57078 21.2183L7.60649 19.9396C8.08268 19.6399 8.74935 19.6799 9.17792 20.0395L11.1541 21.7078C11.6184 22.0974 12.3803 22.0974 12.8446 21.7078L14.8446 20.0295C15.2613 19.6799 15.9279 19.6399 16.3922 19.9396L18.4279 21.2183C19.2136 21.7078 20.3327 21.2383 20.3327 20.4191V3.99797V2H9.6184ZM6.99902 13.4167C6.99902 13.1865 7.18557 13 7.41569 13H16.5824C16.8125 13 16.999 13.1865 16.999 13.4167C16.999 13.6468 16.8125 13.8333 16.5824 13.8333H7.41569C7.18557 13.8333 6.99902 13.6468 6.99902 13.4167ZM7.41569 15.7778C7.18557 15.7778 6.99902 15.9644 6.99902 16.1945C6.99902 16.4246 7.18557 16.6112 7.41569 16.6112H16.5824C16.8125 16.6112 16.999 16.4246 16.999 16.1945C16.999 15.9644 16.8125 15.7778 16.5824 15.7778H7.41569Z" fill="#4F78E2"/>
<path d="M9.15039 5.69458L10.535 10.3055L11.9902 5.69458L13.7085 10.3055L14.8626 5.69458" stroke="white" stroke-linecap="round" stroke-linejoin="round"/>
<path d="M8.17773 7.58057H9.71692" stroke="white" stroke-linecap="round" stroke-linejoin="round"/>
<path d="M14.4609 7.58057H16.0001" stroke="white" stroke-linecap="round" stroke-linejoin="round"/>
</svg>
