<svg width="18" height="18" viewBox="0 0 18 18" fill="none" xmlns="http://www.w3.org/2000/svg">
<path fill-rule="evenodd" clip-rule="evenodd" d="M5.66667 0.0415039C6.01184 0.0415039 6.29167 0.321326 6.29167 0.666504V3.1665C6.29167 3.51168 6.01184 3.7915 5.66667 3.7915C5.32149 3.7915 5.04167 3.51168 5.04167 3.1665V0.666504C5.04167 0.321326 5.32149 0.0415039 5.66667 0.0415039Z" fill="#111111"/>
<path fill-rule="evenodd" clip-rule="evenodd" d="M12.3333 0.0415039C12.6785 0.0415039 12.9583 0.321326 12.9583 0.666504V3.1665C12.9583 3.51168 12.6785 3.7915 12.3333 3.7915C11.9882 3.7915 11.7083 3.51168 11.7083 3.1665V0.666504C11.7083 0.321326 11.9882 0.0415039 12.3333 0.0415039Z" fill="#111111"/>
<path fill-rule="evenodd" clip-rule="evenodd" d="M1.29167 6.57483C1.29167 6.22966 1.57149 5.94983 1.91667 5.94983H16.0833C16.4285 5.94983 16.7083 6.22966 16.7083 6.57483C16.7083 6.92001 16.4285 7.19983 16.0833 7.19983H1.91667C1.57149 7.19983 1.29167 6.92001 1.29167 6.57483Z" fill="#111111"/>
<path fill-rule="evenodd" clip-rule="evenodd" d="M2.94758 3.48762C2.41364 4.06263 2.125 4.92898 2.125 6.08317V13.1665C2.125 14.3207 2.41364 15.187 2.94758 15.7621C3.47373 16.3287 4.32746 16.7082 5.66667 16.7082H12.3333C13.6725 16.7082 14.5263 16.3287 15.0524 15.7621C15.5864 15.187 15.875 14.3207 15.875 13.1665V6.08317C15.875 4.92898 15.5864 4.06263 15.0524 3.48762C14.5263 2.92099 13.6725 2.5415 12.3333 2.5415H5.66667C4.32746 2.5415 3.47373 2.92099 2.94758 3.48762ZM2.03159 2.63706C2.8596 1.74535 4.08921 1.2915 5.66667 1.2915H12.3333C13.9108 1.2915 15.1404 1.74535 15.9684 2.63706C16.7886 3.52038 17.125 4.73736 17.125 6.08317V13.1665C17.125 14.5123 16.7886 15.7293 15.9684 16.6126C15.1404 17.5043 13.9108 17.9582 12.3333 17.9582H5.66667C4.08921 17.9582 2.8596 17.5043 2.03159 16.6126C1.21136 15.7293 0.875 14.5123 0.875 13.1665V6.08317C0.875 4.73736 1.21136 3.52038 2.03159 2.63706Z" fill="#111111"/>
</svg>
