<svg width="25" height="24" viewBox="0 0 25 24" fill="none" xmlns="http://www.w3.org/2000/svg">
<path d="M5 18.0853C4.99996 19.1427 5.83943 20 6.87498 20H18.125C19.1605 20 20 19.1428 20 18.0853V13.6719H5.00015L5 18.0853Z" fill="#A4F65F"/>
<path d="M11.6909 7.15155C11.8313 7.14566 11.9611 7.07028 12.0309 6.94683C12.1007 6.82338 12.0996 6.67087 12.0345 6.5438C11.7855 6.08052 10.9121 4.54011 10.342 4.20402C9.63181 3.7853 8.71956 4.03236 8.31155 4.75402C7.90357 5.47562 8.15009 6.40593 8.86035 6.82468C9.43972 7.16627 11.1735 7.16303 11.6909 7.15155Z" fill="#A4F65F"/>
<path d="M12.9958 6.54367C12.9306 6.67078 12.9297 6.82325 12.9995 6.9467C13.0693 7.07015 13.1991 7.14549 13.3395 7.15142C13.8568 7.16289 15.5999 7.16064 16.17 6.82455C16.8802 6.40584 17.1268 5.47555 16.7188 4.75389C16.3108 4.03229 15.3986 3.78515 14.6883 4.20389C14.1089 4.54548 13.2448 6.0804 12.9958 6.54367Z" fill="#A4F65F"/>
<path d="M5.00015 13.6719L5 9.46943C4.99996 8.41196 5.83942 7.55469 6.87497 7.55468L18.125 7.5546C19.1605 7.55459 20 8.41182 20 9.46928V13.6719M5.00015 13.6719H20M5.00015 13.6719L5 18.0853C4.99996 19.1427 5.83943 20 6.87498 20H18.125C19.1605 20 20 19.1428 20 18.0853V13.6719M12.6364 20V7.55458M11.6909 7.15155C11.8313 7.14566 11.9611 7.07028 12.0309 6.94683C12.1007 6.82338 12.0996 6.67087 12.0345 6.5438C11.7855 6.08052 10.9121 4.54011 10.342 4.20402C9.63181 3.7853 8.71956 4.03236 8.31155 4.75402C7.90357 5.47562 8.15009 6.40593 8.86035 6.82468C9.43972 7.16627 11.1735 7.16303 11.6909 7.15155ZM12.9958 6.54367C12.9306 6.67078 12.9297 6.82325 12.9995 6.9467C13.0693 7.07015 13.1991 7.14549 13.3395 7.15142C13.8568 7.16289 15.5999 7.16064 16.17 6.82455C16.8802 6.40584 17.1268 5.47555 16.7188 4.75389C16.3108 4.03229 15.3986 3.78515 14.6883 4.20389C14.1089 4.54548 13.2448 6.0804 12.9958 6.54367Z" stroke="#4CB01D" stroke-width="1.5" stroke-linecap="round"/>
</svg>
