<svg width="20" height="20" viewBox="0 0 20 20" fill="none" xmlns="http://www.w3.org/2000/svg">
<g clip-path="url(#clip0_665_6968)">
<path fill-rule="evenodd" clip-rule="evenodd" d="M0 9.07988C0 4.52552 4.47676 0.833252 10 0.833252C15.5205 0.833252 19.9973 4.52552 20 9.07988C20 13.6342 15.5232 17.3265 10 17.3265C9.36396 17.3265 8.74422 17.2783 8.14352 17.1847C7.03452 17.9731 4.46589 19.7937 4.29464 19.9128C4.07448 20.0631 3.74015 20.0716 3.87605 19.5044C3.98478 19.0479 4.53384 16.9096 4.74314 16.0958C1.89725 14.6438 0 12.0433 0 9.07988ZM4.92525 11.5272C5.01767 11.4336 5.06931 11.3032 5.06931 11.1699H5.06659V7.5145H5.96358C6.23811 7.5145 6.46099 7.28196 6.46099 6.99554C6.46099 6.70912 6.23811 6.47658 5.96358 6.47658H3.03887C2.76434 6.47658 2.54145 6.70912 2.54145 6.99554C2.54145 7.28196 2.76434 7.5145 3.03887 7.5145H3.99021V11.1699C3.99021 11.3032 4.04186 11.4336 4.13427 11.5272C4.22397 11.6208 4.34901 11.6747 4.47676 11.6747H4.58277C4.71052 11.6747 4.83555 11.6208 4.92525 11.5272ZM9.23892 11.34C9.32862 11.6038 9.60315 11.7427 9.85594 11.6492C10.106 11.5556 10.2392 11.2692 10.1495 11.0054L8.69258 6.84524C8.69258 6.84524 8.68986 6.83957 8.68714 6.83957C8.59473 6.58718 8.32563 6.40285 8.00489 6.40285C7.64882 6.40285 7.35526 6.62971 7.29546 6.92748C7.29138 6.93882 7.28663 6.95016 7.28187 6.96151C7.27711 6.97285 7.27236 6.9842 7.26828 6.99554L5.83582 11.0054C5.74884 11.2692 5.88203 11.5584 6.1321 11.6492C6.38489 11.7399 6.65942 11.6038 6.74912 11.34L6.99647 10.6027H8.99157L9.23892 11.34ZM11.0057 11.6406H12.9927C13.2427 11.6406 13.4439 11.4308 13.4412 11.1699C13.4412 10.909 13.24 10.6991 12.9899 10.6991H11.6309V6.96718C11.6309 6.65524 11.3917 6.40285 11.0927 6.40285C10.7964 6.40285 10.5545 6.65524 10.5545 6.96718V10.9884C10.5545 11.0196 10.5572 11.0508 10.5627 11.0792C10.5572 11.1103 10.5545 11.1387 10.5545 11.1699C10.5545 11.4308 10.7556 11.6406 11.0057 11.6406ZM16.567 11.4762C16.7247 11.6974 17.0291 11.7427 17.2411 11.5754C17.4558 11.4081 17.4993 11.0933 17.3389 10.8693L15.825 8.79346L17.1949 7.3642C17.3797 7.17136 17.3797 6.85658 17.1949 6.66374C17.0101 6.47091 16.7083 6.47091 16.5235 6.66374L14.8274 8.43331V6.96718C14.8274 6.65524 14.5882 6.40285 14.2892 6.40285C13.9902 6.40285 13.7483 6.65524 13.7483 6.96718V11.1132C13.7483 11.4251 13.9902 11.6775 14.2892 11.6775C14.5855 11.6775 14.8274 11.4251 14.8274 11.1132V9.83422L15.1345 9.51377L16.567 11.4762ZM7.31201 9.65843L7.98339 7.66483H8.00513L8.67379 9.65843H7.31201Z" fill="#111111"/>
</g>
<defs>
<clipPath id="clip0_665_6968">
<rect width="20" height="20" fill="white"/>
</clipPath>
</defs>
</svg>
