<svg width="59" height="59" viewBox="0 0 59 59" fill="none" xmlns="http://www.w3.org/2000/svg">
<path fill-rule="evenodd" clip-rule="evenodd" d="M26.2817 10.325C28.7255 10.325 30.7067 12.3062 30.7067 14.75V20.06C30.7067 22.5038 32.6878 24.485 35.1317 24.485H41.9704C44.4143 24.485 46.3954 26.4661 46.3954 28.91V45.725C46.3954 48.1689 44.4143 50.15 41.9704 50.15H17.0295C14.5856 50.15 12.6045 48.1689 12.6045 45.725V14.75C12.6045 12.3062 14.5856 10.325 17.0295 10.325H26.2817ZM27.8522 27.3832C26.376 25.907 26.3438 22.2544 26.3438 22.2544C26.3438 22.2544 26.3116 25.907 24.8353 27.3832C23.359 28.8595 21.4131 28.8917 21.4131 28.8917C21.4131 28.8917 23.359 28.9239 24.8353 30.4002C26.3116 31.8765 26.3438 35.529 26.3438 35.529C26.3438 35.529 26.376 31.8765 27.8522 30.4002C29.3285 28.9239 31.2744 28.8917 31.2744 28.8917C31.2744 28.8917 29.3285 28.8595 27.8522 27.3832ZM32.5166 32.0478C32.5166 32.0478 32.5341 34.0402 33.3394 34.8455C34.1447 35.6508 35.2062 35.6683 35.2062 35.6683C35.2062 35.6683 34.1447 35.6859 33.3394 36.4912C32.5341 37.2965 32.5166 39.2889 32.5166 39.2889C32.5166 39.2889 32.499 37.2965 31.6937 36.4912C30.8884 35.6859 29.827 35.6683 29.827 35.6683C29.827 35.6683 30.8884 35.6508 31.6937 34.8455C32.499 34.0402 32.5166 32.0478 32.5166 32.0478ZM17.4317 16.359C17.0984 16.359 16.8282 16.6292 16.8282 16.9624V20.5829C16.8282 20.9161 17.0984 21.1863 17.4317 21.1863C17.7649 21.1863 18.0351 20.9161 18.0351 20.5829V16.9624C18.0351 16.6292 17.7649 16.359 17.4317 16.359ZM22.862 15.7557C22.862 15.4224 23.1322 15.1523 23.4655 15.1523C23.7987 15.1523 24.0689 15.4224 24.0689 15.7557V19.3761C24.0689 19.7094 23.7987 19.9795 23.4655 19.9795C23.1322 19.9795 22.862 19.7094 22.862 19.3761V15.7557ZM16.2244 30.841C15.8912 30.841 15.621 31.1111 15.621 31.4444V35.0648C15.621 35.3981 15.8912 35.6682 16.2244 35.6682C16.5577 35.6682 16.8278 35.3981 16.8278 35.0648V31.4444C16.8278 31.1111 16.5577 30.841 16.2244 30.841ZM34.9301 44.7193C34.9301 44.3861 35.2003 44.1159 35.5335 44.1159C35.8668 44.1159 36.1369 44.3861 36.1369 44.7193V47.133C36.1369 47.4662 35.8668 47.7364 35.5335 47.7364C35.2003 47.7364 34.9301 47.4662 34.9301 47.133V44.7193ZM18.638 41.7022C18.3047 41.7022 18.0345 41.9724 18.0345 42.3057V44.7193C18.0345 45.0525 18.3047 45.3227 18.638 45.3227C18.9712 45.3227 19.2414 45.0525 19.2414 44.7193V42.3057C19.2414 41.9724 18.9712 41.7022 18.638 41.7022ZM40.9639 33.858C40.9639 33.5247 41.2341 33.2546 41.5673 33.2546C41.9006 33.2546 42.1707 33.5247 42.1707 33.858V37.4785C42.1707 37.8117 41.9006 38.0819 41.5673 38.0819C41.2341 38.0819 40.9639 37.8117 40.9639 37.4785V33.858ZM25.879 41.7022C25.5457 41.7022 25.2756 41.9724 25.2756 42.3057V45.9261C25.2756 46.2594 25.5457 46.5295 25.879 46.5295C26.2122 46.5295 26.4824 46.2594 26.4824 45.9261V42.3057C26.4824 41.9724 26.2122 41.7022 25.879 41.7022Z" fill="#4CB01D"/>
</svg>
