<svg width="59" height="59" viewBox="0 0 59 59" fill="none" xmlns="http://www.w3.org/2000/svg">
<path d="M17.2402 45.6626L17.7401 45.6626L41.4955 45.6616L41.9955 45.6616V46.1616C41.9955 46.3209 41.995 46.4755 41.9946 46.6272C41.9938 46.9214 41.9929 47.2047 41.9955 47.4904L41.9955 47.4909C41.9976 47.7666 42.0778 47.9305 42.1709 48.0253C42.2635 48.1196 42.4242 48.2021 42.6985 48.2073H42.6985C43.2377 48.2176 43.7769 48.2176 44.316 48.2073L44.3161 48.2073C44.6136 48.2017 44.7568 48.1249 44.8283 48.0542C44.8987 47.9846 44.9747 47.8465 44.9796 47.5567V47.5566C44.9902 46.9314 44.9995 46.3193 44.9779 45.7106M17.2402 45.6626L45.4776 45.6928M17.2402 45.6626V46.1626M17.2402 45.6626V46.1626M44.9779 45.7106L45.4776 45.6928M44.9779 45.7106C44.9779 45.7107 44.9779 45.7108 44.9779 45.711L45.4776 45.6928M44.9779 45.7106C44.9494 44.9273 45.0641 44.1846 45.4498 43.4248M45.4776 45.6928C45.4515 44.9758 45.5558 44.3206 45.8957 43.6512M45.4498 43.4248C45.4498 43.4249 45.4497 43.425 45.4497 43.4251L45.8957 43.6512M45.4498 43.4248C46.0355 42.2693 46.1829 40.9729 46.1961 39.604C46.2162 37.5446 46.0296 35.59 45.1165 33.7879C45.0654 33.6871 45.0295 33.5879 45.0017 33.5055C44.9897 33.47 44.9799 33.4399 44.9708 33.4121C44.9558 33.3664 44.9429 33.3269 44.9256 33.2793L44.6929 32.6399L45.3727 32.6089L45.5989 32.5986C45.5995 32.5985 45.6001 32.5985 45.6007 32.5985L45.6026 32.5984L45.622 33.0259M45.4498 43.4248L45.8957 43.6512M45.8957 43.6512L45.9098 33.0664M13.4453 32.5977L13.4693 32.5996C13.5576 32.6065 13.6506 32.6139 13.7757 32.6243L14.4701 32.6826L14.1926 33.3217C14.1028 33.5286 14.0152 33.7175 13.9319 33.897C13.7678 34.2509 13.6204 34.5686 13.5059 34.9164L13.5059 34.9165C12.8758 36.8293 12.7103 38.8007 12.9237 40.8081L13.4453 32.5977ZM13.4453 32.5977C13.4449 32.5977 13.4446 32.5976 13.4442 32.5976M13.4453 32.5977L13.4442 32.5976M13.4442 32.5976C13.0669 32.5659 12.7888 32.4243 12.6056 32.2291C12.4228 32.0343 12.3037 31.7536 12.3018 31.3866L11.8018 31.3891C11.8017 31.3518 11.8015 31.3145 11.8013 31.2772C11.8003 31.0898 11.7994 30.902 11.8018 30.7149M13.4442 32.5976L12.3018 31.3869C12.3017 31.3489 12.3015 31.311 12.3013 31.2734C12.3003 31.0865 12.2994 30.9043 12.3018 30.7224M11.8018 30.7149L12.3018 30.7233C12.3018 30.723 12.3018 30.7227 12.3018 30.7224M11.8018 30.7149L12.3018 30.7213C12.3018 30.7217 12.3018 30.722 12.3018 30.7224M11.8018 30.7149L12.3018 30.7224M12.3018 30.7224C12.3092 30.3052 12.6051 30.0069 13.0341 30.0034L13.0343 30.0034L13.1128 30.0027C13.8748 29.9962 14.6272 29.9899 15.3776 30.008C15.3777 30.008 15.3778 30.008 15.3778 30.008L15.3899 29.5082L12.3018 30.7224ZM16.5363 48.2082C16.8092 48.2033 16.9702 48.1211 17.0635 48.0263C17.1572 47.931 17.2377 47.7669 17.2402 47.4923L16.5363 48.2082ZM16.5363 48.2082C15.9818 48.2177 15.4315 48.2204 14.8832 48.2064L14.8832 48.2064M16.5363 48.2082L14.8832 48.2064M45.9098 33.0664C45.8959 33.0244 45.8806 32.9792 45.8653 32.9374L45.622 33.0259M45.9098 33.0664C45.8187 33.0821 45.7238 33.0927 45.6253 33.0979M45.9098 33.0664L45.4774 33.6051L45.5819 33.6004C45.5755 33.5875 45.569 33.5747 45.5625 33.5619C45.516 33.4702 45.4837 33.3716 45.4495 33.2671C45.4326 33.2156 45.4152 33.1626 45.3955 33.1083M45.622 33.0259L45.6253 33.0979M45.622 33.0259L45.6215 33.0261M45.3955 33.1083L45.6253 33.0979M45.3955 33.1083L45.4183 33.6078L45.4773 33.6051L45.6215 33.0261M45.3955 33.1083L45.6215 33.0261M45.6253 33.0979L45.6215 33.0261M17.2402 46.1626C17.2402 46.3223 17.2406 46.4771 17.2411 46.629M17.2402 46.1626L17.2411 46.629M14.8832 48.2064C14.6146 48.1996 14.4765 48.1258 14.4047 48.0547C14.3343 47.9849 14.2623 47.8531 14.258 47.594C14.2499 47.1052 14.2509 46.6339 14.2518 46.1574C14.2526 45.7709 14.2534 45.3809 14.2494 44.9756L14.2494 44.9738M14.8832 48.2064L14.2494 44.9738M14.2494 44.9738C14.2474 44.8318 14.236 44.5214 14.0643 44.2733M14.2494 44.9738L14.0643 44.2733M40.1492 29.891C40.1588 29.8924 40.1684 29.8937 40.178 29.8951C40.2734 29.9085 40.3666 29.9215 40.4562 29.935L41.1796 30.0442L41.0186 29.3306C41.0177 29.3264 41.0165 29.3206 41.0143 29.3093C41.0126 29.3004 41.0092 29.282 41.0057 29.2651C40.9985 29.2302 40.985 29.17 40.9572 29.1037L40.9562 29.1013C40.8702 28.8992 40.7843 28.697 40.6983 28.4946C40.3304 27.6285 39.9615 26.7601 39.5832 25.8952C39.4904 25.6825 39.337 25.4542 39.1289 25.2878C38.4146 24.7149 37.576 24.2801 36.5387 24.2811L40.1492 29.891ZM40.1492 29.891C41.391 30.1786 42.1172 31.2757 41.9818 32.4977L41.9818 32.4979C41.8447 33.7317 40.8621 34.6604 39.6174 34.7175L40.1492 29.891ZM16.724 32.6835C16.6915 32.7655 16.6609 32.8574 16.6338 32.939C16.6233 32.9704 16.6133 33.0003 16.604 33.0276L16.3762 33.6901H17.0768H23.7789H24.5762L24.5275 33.5895C25.0742 34.3117 25.9656 34.7228 26.9567 34.7228H26.9798H27.0029H27.026H27.0492H27.0723H27.0954H27.1185H27.1417H27.1648H27.1879H27.211H27.2342H27.2573H27.2804H27.3035H27.3266H27.3498H27.3729H27.396H27.4191H27.4423H27.4654H27.4885H27.5116H27.5347H27.5579H27.581H27.6041H27.6272H27.6504H27.6735H27.6966H27.7197H27.7429H27.766H27.7891H27.8122H27.8353H27.8585H27.8816H27.9047H27.9278H27.951H27.9741H27.9972H28.0203H28.0434H28.0666H28.0897H28.1128H28.1359H28.1591H28.1822H28.2053H28.2284H28.2515H28.2747H28.2978H28.3209H28.344H28.3671H28.3903H28.4134H28.4365H28.4596H28.4828H28.5059H28.529H28.5521H28.5752H28.5984H28.6215H28.6446H28.6677H28.6909H28.714H28.7371H28.7602H28.7833H28.8065H28.8296H28.8527H28.8758H28.899H28.9221H28.9452H28.9683H28.9914H29.0146H29.0377H29.0608H29.0839H29.107H29.1302H29.1533H29.1764H29.1995H29.2227H29.2458H29.2689H29.292H29.3151H29.3383H29.3614H29.3845H29.4076H29.4307H29.4539H29.477H29.5001H29.5232H29.5463H29.5695H29.5926H29.6157H29.6388H29.662H29.6851H29.7082H29.7313H29.7544H29.7776H29.8007H29.8238H29.8469H29.87H29.8932H29.9163H29.9394H29.9625H29.9856H30.0088H30.0319H30.055H30.0781H30.1013H30.1244H30.1475H30.1706H30.1937H30.2169H30.24H30.2631H30.2862H30.3093H30.3325H30.3556H30.3787H30.4018H30.4249H30.4481H30.4712H30.4943H30.5174H30.5405H30.5637H30.5868H30.6099H30.633H30.6562H30.6793H30.7024H30.7255H30.7486H30.7718H30.7949H30.818H30.8411H30.8642H30.8874H30.9105H30.9336H30.9567H30.9798H31.003H31.0261H31.0492H31.0723H31.0954H31.1186H31.1417H31.1648H31.1879H31.211H31.2342H31.2573H31.2804H31.3035H31.3266H31.3498H31.3729H31.396H31.4191H31.4423H31.4654H31.4885H31.5116H31.5347H31.5579H31.581H31.6041H31.6272H31.6503H31.6735H31.6966H31.7197H31.7428H31.7659H31.7891H31.8122H31.8353H31.8584H31.8815H31.9047H31.9278H31.9509H31.974H31.9971H32.0203H32.0434H32.0665H32.0896H32.1127H32.1359H32.159H32.1821H32.2052H32.2283H32.2515H32.2746H32.2977H32.3208H32.3439H32.3671H32.3902H32.4133H32.4364H32.4595H32.4827H32.5058H32.5289H32.552H32.5751H32.5983H32.6214H32.6445H32.6676H32.6908H32.7139H32.737H32.7601H32.7832H32.8064H32.8295H32.8526H32.8757H32.8988H32.922H32.9451H32.9682H32.9913H33.0144H33.0376H33.0607H33.0838H33.1069H33.13H33.1532H33.1763H33.1994H33.2225H33.2456H33.2688H33.2919H33.315H33.3381H33.3612H33.3844H33.4075H33.4306H33.4537H33.4768H33.5H33.5231H33.5462H33.5693H33.5924H33.6156H33.6387H33.6618H33.6849H33.708H33.7312H33.7543H33.7774H33.8005H33.8236H33.8468H33.8699H33.893H33.9161H33.9392H33.9624H33.9855H34.0086H34.0317H34.0548H34.078H34.1011H34.1242H34.1473H34.1705H34.1936H34.2167H34.2398H34.2629H34.2861H34.3092H34.3323H34.3554H34.3785H34.4017H34.4248H34.4479H34.471H34.4941H34.5173H34.5404H34.5635H34.5866H34.6097H34.6329H34.656H34.6791H34.7022H34.7253H34.7485H34.7716H34.7947H34.8178H34.8409H34.8641H34.8872H34.9103H34.9334H34.9566H34.9797H35.0028H35.0259H35.049H35.0722H35.0953H35.1184H35.1415H35.1646H35.1878H35.2109H35.234H35.2571H35.2802H35.3034H35.3265H35.3496H35.3727H35.3958H35.419H35.4421H35.4652H35.4883H35.5114H35.5346H35.5577H35.5808H35.6039H35.6271H35.6502H35.6733H35.6964H35.7195H35.7427H35.7658H35.7889H35.812H35.8351H35.8583H35.8814H35.9045H35.9276H35.9507H35.9739H35.997H36.0201H36.0432H36.0664H36.0895H36.1126H36.1357H36.1588H36.182H36.2051H36.2282H36.2513H36.2744H36.2976H36.3207H36.3438H36.3669H36.39H36.4132H36.4363H36.4594H36.4825H36.5057H36.5288H36.5519H36.575H36.5981H36.6213H36.6444H36.6675H36.6906H36.7137H36.7369H36.76H36.7831H36.8062H36.8294H36.8525H36.8756H36.8987H36.9218H36.945H36.9681H36.9912H37.0143H37.0374H37.0606H37.0837H37.1068H37.1299H37.1531H37.1762H37.1993H37.2224H37.2455H37.2687H37.2918H37.3149H37.338H37.3612H37.3843H37.4074H37.4305H37.4536H37.4768H37.4999H37.523H37.5461H37.5693H37.5924H37.6155H37.6386H37.6617H37.6849H37.708H37.7311H37.7542H37.7774H37.8005H37.8236H37.8467H37.8698H37.893H37.9161H37.9392H37.9623H37.9855H38.0086H38.0317H38.0548H38.0779H38.1011H38.1242H38.1473H38.1704H38.1936H38.2167H38.2398H38.2629H38.286H38.3092H38.3323H38.3554H38.3785H38.4017H38.4248H38.4479H38.471H38.4942H38.5173H38.5404H38.5635H38.5866H38.6098H38.6329H38.656H38.6791H38.7023H38.7254H38.7485H38.7716H38.7947C38.8599 34.7228 38.9282 34.7233 38.9986 34.7239C39.1957 34.7255 39.4096 34.7271 39.6171 34.7175L16.724 32.6835ZM16.724 32.6835C16.9141 32.2033 17.1039 31.7228 17.2938 31.2421C17.9753 29.5171 18.6577 27.7897 19.3547 26.0692L19.3549 26.0688C19.4954 25.7228 19.7576 25.4065 20.0411 25.1935L20.0412 25.1934C20.8008 24.6229 21.6672 24.2722 22.6923 24.2754L22.6925 24.2754C26.7948 24.2898 30.8964 24.2861 34.9998 24.2825C35.5127 24.282 36.0256 24.2816 36.5386 24.2811L16.724 32.6835ZM28.4455 27.4998C28.2041 27.8433 28.0361 28.2529 27.919 28.7251L27.8663 28.9377M28.4455 27.4998L27.8803 28.7156C27.8728 28.7897 27.8682 28.8638 27.8663 28.9377M28.4455 27.4998L28.7797 27.7651L28.4456 27.4997M28.4455 27.4998L28.4456 27.4997M27.8663 28.9377C27.8635 29.0397 27.8657 29.1413 27.8717 29.2423C27.8583 29.2368 27.8449 29.2312 27.8314 29.2253L27.8299 29.2247C27.726 29.18 27.6222 29.1416 27.5189 29.1094L27.8201 29.1238L27.8663 28.9377ZM28.4456 27.4997C28.573 27.3185 28.7208 27.1558 28.8923 27.0119L28.8924 27.0119C29.1832 26.7681 29.5032 26.5978 29.8368 26.5017L29.9558 26.9873L28.4456 27.4997ZM29.6586 40.2423C30.0942 40.2423 30.53 40.2421 30.9659 40.242C32.1532 40.2416 33.3411 40.2412 34.5287 40.2433L34.529 40.2433C34.8314 40.244 35.1314 40.3329 35.362 40.5455C35.5961 40.7612 35.7066 41.0563 35.7142 41.3651C35.7142 41.3651 35.7142 41.3652 35.7142 41.3653L35.2144 41.3775L29.6586 40.2423ZM29.6586 40.2423L29.6566 40.2414H29.5406C29.1614 40.2414 28.7817 40.2409 28.4016 40.2403C27.145 40.2386 25.8841 40.2369 24.6249 40.2538L24.6246 40.2538C24.4387 40.2563 24.2479 40.3083 24.0886 40.3809C23.9373 40.45 23.7471 40.5684 23.6219 40.7551C23.4964 40.9416 23.4569 41.1581 23.4486 41.3253C23.44 41.5003 23.4623 41.6849 23.5141 41.8473M29.6586 40.2423L23.5141 41.8473M23.5141 41.8473C23.5141 41.8472 23.5141 41.8471 23.514 41.8471L23.9904 41.6951L23.5141 41.8473ZM17.2411 46.629C17.2419 46.9234 17.2427 47.2066 17.2402 47.4922L17.2411 46.629ZM14.0643 44.2733C13.3592 43.2521 13.0593 42.0786 12.9238 40.8083L14.0643 44.2733ZM16.4544 29.4101C17.1892 28.0908 17.9417 26.7804 18.6969 25.4669C19.4313 24.1904 20.5656 23.5163 22.0315 23.4132L22.0319 23.4132C22.9474 23.3481 23.8554 23.3598 24.7874 23.3718C25.2085 23.3772 25.6345 23.3827 26.0683 23.3812H26.0683H26.0692H26.0701H26.071H26.0719H26.0728H26.0737H26.0746H26.0755H26.0765H26.0774H26.0783H26.0793H26.0802H26.0812H26.0821H26.0831H26.084H26.085H26.086H26.087H26.0879H26.0889H26.0899H26.0909H26.0919H26.0929H26.0939H26.0949H26.0959H26.0969H26.0979H26.0989H26.0999H26.101H26.102H26.103H26.1041H26.1051H26.1061H26.1072H26.1082H26.1093H26.1104H26.1114H26.1125H26.1135H26.1146H26.1157H26.1168H26.1178H26.1189H26.12H26.1211H26.1222H26.1233H26.1244H26.1255H26.1266H26.1277H26.1288H26.1299H26.131H26.1321H26.1333H26.1344H26.1355H26.1366H26.1378H26.1389H26.14H26.1412H26.1423H26.1435H26.1446H26.1458H26.1469H26.1481H26.1492H26.1504H26.1516H26.1527H26.1539H26.1551H26.1562H26.1574H26.1586H26.1598H26.161H26.1621H26.1633H26.1645H26.1657H26.1669H26.1681H26.1693H26.1705H26.1717H26.1729H26.1741H26.1753H26.1765H26.1777H26.1789H26.1802H26.1814H26.1826H26.1838H26.185H26.1863H26.1875H26.1887H26.1899H26.1912H26.1924H26.1936H26.1949H26.1961H26.1974H26.1986H26.1998H26.2011H26.2023H26.2036H26.2048H26.2061H26.2073H26.2086H26.2098H26.2111H26.2123H26.2136H26.2149H26.2161H26.2174H26.2186H26.2199H26.2212H26.2224H26.2237H26.225H26.2262H26.2275H26.2288H26.23H26.2313H26.2326H26.2339H26.2351H26.2364H26.2377H26.239H26.2402H26.2415H26.2428H26.2441H26.2454H26.2466H26.2479H26.2492H26.2505H26.2518H26.2531H26.2543H26.2556H26.2569H26.2582H26.2595H26.2608H26.2621H26.2634H26.2646H26.2659H26.2672H26.2685H26.2698H26.2711H26.2724H26.2737H26.2749H26.2762H26.2775H26.2788H26.2801H26.2814H26.2827H26.284H26.2853H26.2866H26.2878H26.2891H26.2904H26.2917H26.293H26.2943H26.2956H26.2969H26.2981H26.2994H26.3007H26.302H26.3033H26.3046H26.3059H26.3071H26.3084H26.3097H26.311H26.3123H26.3136H26.3148H26.3161H26.3174H26.3187H26.3199H26.3212H26.3225H26.3238H26.3251H26.3263H26.3276H26.3289H26.3301H26.3314H26.3327H26.3339H26.3352H26.3365H26.3377H26.339H26.3403H26.3415H26.3428H26.3441H26.3453H26.3466H26.3478H26.3491H26.3503H26.3516H26.3528H26.3541H26.3553H26.3566H26.3578H26.3591H26.3603H26.3615H26.3628H26.364H26.3653H26.3665H26.3677H26.369H26.3702H26.3714H26.3726H26.3739H26.3751H26.3763H26.3775H26.3787H26.38H26.3812H26.3824H26.3836H26.3848H26.386H26.3872H26.3884H26.3896H26.3908H26.392H26.3932H26.3944H26.3956H26.3967H26.3979H26.3991H26.4003H26.4015H26.4026H26.4038H26.405H26.4061H26.4073H26.4085H26.4096H26.4108H26.4119H26.4131H26.4142H26.4154H26.4165H26.4177H26.4188H26.42H26.4211H26.4222H26.4234H26.4245H26.4256H26.4267H26.4278H26.429H26.4301H26.4312H26.4323H26.4334H26.4345H26.4356H26.4367H26.4378H26.4388H26.4399H26.441H26.4421H26.4432H26.4442H26.4453H26.4464H26.4474H26.4485H26.4495H26.4506H26.4516H26.4527H26.4537H26.4548H26.4558H26.4568H26.4579H26.4589H26.4599H26.4609H26.4619H26.4629H26.4639H26.4649H26.4659H26.4669H26.4679H26.4689H26.4699H26.4709H26.4719H26.4728H26.4738H26.4748H26.4757H26.4767H26.4776H26.4786H26.4795H26.4805H26.4814H26.4823H26.4832H26.4842H26.4851H26.486H26.4869H26.4878H26.4887H26.4896H26.4905H26.4914H26.4923H26.4932H26.494H26.4949H26.4958H26.4966H26.4975H26.4984H26.4992H26.5H26.5009H26.5017H26.5026H26.5034H26.5042H26.505H26.5058H26.5066H26.5074H26.5082H26.509H26.5098H26.5106H26.5114H26.5121H26.5129H26.5137H26.5144H26.5152H26.5159H26.5167H26.5174H26.5181H26.5189H26.5196H26.5203H26.521H26.5217H26.5224H26.5231H26.5238H26.5245H26.5252H26.5258H26.5265H26.5272H26.5278H26.5285H26.5291H26.5298H26.5304H26.531H26.5316H26.5323H26.5329H26.5335H26.5341H26.5347H26.5353H26.5359H26.5364H26.537H26.5376H26.5381H26.5387H26.5392H26.5398H26.5403H26.5408H26.5414H26.5419H26.5424H26.5429H26.5434H26.5439H26.5444H26.5449H26.5453H26.5458H26.5463H26.5467H26.5472H26.5476H26.5481H26.5485H26.5489H26.5493H26.5497H26.5501H26.5505H26.5509H26.5513H26.5517H26.5521H26.5524H26.5528H26.5532H26.5535H26.5538H26.5542H26.5545H26.5548H26.5551H26.5554H26.5557H26.556H26.5563H26.5566H26.5569H26.5571H26.5574H26.5576H26.5579H26.5581H26.5583H26.5586H26.5588H26.559H26.5592H26.5594H26.5595H26.5597H26.5599H26.5601H26.5602H26.5604H26.5605H26.5606H26.5608H26.5609H26.561H26.5611H26.5612H26.5613H26.5614H26.5614H26.5615H26.5616H26.5616H26.5617H26.5617H26.5617H26.5617H26.5617H27.706H28.1781C29.0217 23.3812 29.8643 23.3794 30.7062 23.3776C32.6676 23.3734 34.6254 23.3692 36.5845 23.3878L16.4544 29.4101ZM32.9804 27.842L32.98 27.8423C32.9677 27.8527 32.9545 27.8631 32.9402 27.8736C32.8681 27.7243 32.7838 27.5772 32.6812 27.4377C32.7745 27.4864 32.8766 27.522 32.99 27.5389C33.1528 27.5633 33.3064 27.5433 33.4415 27.511C33.2819 27.6077 33.1277 27.7179 32.9804 27.842ZM38.9133 29.4681C38.8871 29.3887 38.8585 29.311 38.8276 29.2351L38.9133 29.4681ZM23.9834 31.5092C23.9545 31.7538 23.956 32.0026 23.9886 32.2492C23.9433 31.9911 23.9449 31.7456 23.9834 31.5092ZM29.8386 26.5012C30.3055 26.3672 30.7989 26.3786 31.2763 26.5381C30.8242 26.407 30.349 26.3765 29.8386 26.5012ZM43.2511 39.4741L43.2511 39.474C43.4366 38.7364 43.2998 38.0235 42.8832 37.489C42.4666 36.9546 41.8084 36.6473 41.047 36.645H41.0469C39.4593 36.6405 37.9286 37.9446 37.6423 39.5204C37.5086 40.2556 37.6607 40.9421 38.1036 41.4391C38.5454 41.9349 39.2118 42.17 39.9627 42.1357C40.6995 42.1021 41.4319 41.7671 42.0124 41.2981C42.5925 40.8294 43.072 40.1853 43.2511 39.4741ZM19.3224 42.139L19.3228 42.139C19.9528 42.1402 20.5173 41.9386 20.9233 41.5346C21.3303 41.1295 21.5304 40.568 21.5192 39.9422L21.5192 39.9421C21.5036 39.081 21.0454 38.2673 20.4229 37.6776C19.7985 37.0862 18.9503 36.6634 18.0672 36.6451L18.0668 36.6451C17.3924 36.6316 16.79 36.8295 16.3652 37.262C15.9395 37.6955 15.756 38.2999 15.7915 38.9706L16.2908 38.9441L15.7915 38.9701C15.8356 39.8184 16.3187 40.6076 16.9545 41.1725C17.5928 41.7395 18.4467 42.1367 19.3224 42.139ZM36.5846 23.3878C38.3837 23.4052 39.7115 24.1513 40.5732 25.7241C40.9943 26.4927 41.4372 27.2603 41.8768 28.0222C42.159 28.5113 42.4399 28.9982 42.7129 29.4815L36.5846 23.3878Z" fill="#CCCCCC" stroke="#CCCCCC"/>
<mask id="path-2-inside-1_956_11741" fill="white">
<path fill-rule="evenodd" clip-rule="evenodd" d="M20.6502 24.3375C19.021 24.3375 17.7002 23.0168 17.7002 21.3875C17.7002 19.7583 19.021 18.4375 20.6502 18.4375C20.8841 18.4375 21.1117 18.4648 21.3299 18.5162C21.9982 17.5759 23.0963 16.9625 24.3377 16.9625C25.5791 16.9625 26.6772 17.576 27.3455 18.5162C27.5637 18.4648 27.7913 18.4375 28.0252 18.4375C29.6544 18.4375 30.9752 19.7583 30.9752 21.3875C30.9752 23.0168 29.6544 24.3375 28.0252 24.3375L24.3377 24.3375L20.6502 24.3375Z"/>
</mask>
<path d="M20.6502 24.3375V25.0375V24.3375ZM21.3299 18.5162L21.1692 19.1975L21.6277 19.3056L21.9005 18.9217L21.3299 18.5162ZM27.3455 18.5162L26.7749 18.9217L27.0477 19.3056L27.5061 19.1975L27.3455 18.5162ZM28.0252 24.3375V25.0375V24.3375ZM24.3377 24.3375V23.6375V24.3375ZM20.6502 23.6375C19.4076 23.6375 18.4002 22.6302 18.4002 21.3875H17.0002C17.0002 23.4034 18.6344 25.0375 20.6502 25.0375V23.6375ZM18.4002 21.3875C18.4002 20.1449 19.4076 19.1375 20.6502 19.1375V17.7375C18.6344 17.7375 17.0002 19.3717 17.0002 21.3875H18.4002ZM20.6502 19.1375C20.8296 19.1375 21.0033 19.1584 21.1692 19.1975L21.4906 17.8349C21.2201 17.7711 20.9386 17.7375 20.6502 17.7375V19.1375ZM21.9005 18.9217C22.4431 18.1583 23.3325 17.6625 24.3377 17.6625V16.2625C22.8601 16.2625 21.5533 16.9936 20.7593 18.1107L21.9005 18.9217ZM24.3377 17.6625C25.3429 17.6625 26.2323 18.1583 26.7749 18.9217L27.916 18.1107C27.1221 16.9936 25.8153 16.2625 24.3377 16.2625V17.6625ZM27.5061 19.1975C27.6721 19.1584 27.8458 19.1375 28.0252 19.1375V17.7375C27.7368 17.7375 27.4553 17.7711 27.1848 17.8349L27.5061 19.1975ZM28.0252 19.1375C29.2678 19.1375 30.2752 20.1449 30.2752 21.3875H31.6752C31.6752 19.3717 30.041 17.7375 28.0252 17.7375V19.1375ZM30.2752 21.3875C30.2752 22.6302 29.2678 23.6375 28.0252 23.6375V25.0375C30.041 25.0375 31.6752 23.4034 31.6752 21.3875H30.2752ZM28.0252 23.6375L24.3377 23.6375V25.0375L28.0252 25.0375V23.6375ZM24.3377 23.6375L20.6502 23.6375V25.0375L24.3377 25.0375V23.6375Z" fill="#CCCCCC" mask="url(#path-2-inside-1_956_11741)"/>
<path d="M2.9502 48.675V14.325C2.9502 12.1159 4.74106 10.325 6.9502 10.325H52.0502C54.2593 10.325 56.0502 12.1159 56.0502 14.325V48.675" stroke="#CCCCCC" stroke-width="1.5"/>
</svg>
