<svg width="44" height="44" viewBox="0 0 44 44" fill="none" xmlns="http://www.w3.org/2000/svg">
<rect width="44" height="44" rx="22" fill="#F4F4F4"/>
<path d="M14 20V20C13.1088 20 12.5501 19.0373 12.9923 18.2635L15.0787 14.6124C15.4142 14.0251 15.582 13.7315 15.8178 13.5179C16.0263 13.3289 16.2725 13.1861 16.5401 13.0987C16.8425 13 17.1807 13 17.857 13H20M14 20V27.8C14 28.9201 14 29.4802 14.218 29.908C14.4097 30.2843 14.7157 30.5903 15.092 30.782C15.5198 31 16.0799 31 17.2 31H20M14 20H18M30 20V20C30.8912 20 31.4499 19.0373 31.0077 18.2635L28.9213 14.6124C28.5858 14.0251 28.418 13.7315 28.1822 13.5179C27.9737 13.3289 27.7275 13.1861 27.4599 13.0987C27.1575 13 26.8193 13 26.143 13H24M30 20V27.8C30 28.9201 30 29.4802 29.782 29.908C29.5903 30.2843 29.2843 30.5903 28.908 30.782C28.4802 31 27.9201 31 26.8 31H25H24M30 20H26M20 31V25.6C20 25.0399 20 24.7599 20.109 24.546C20.2049 24.3578 20.3578 24.2049 20.546 24.109C20.7599 24 21.0399 24 21.6 24H22.4C22.9601 24 23.2401 24 23.454 24.109C23.6422 24.2049 23.7951 24.3578 23.891 24.546C24 24.7599 24 25.0399 24 25.6V31M20 31H24M18 20H22H26M18 20L20 13M20 13H24M24 13L26 20" stroke="black" stroke-width="1.5" stroke-linecap="round"/>
</svg>
