<svg width="25" height="24" viewBox="0 0 25 24" fill="none" xmlns="http://www.w3.org/2000/svg">
<g opacity="0.9">
<path d="M20.5 12C20.5 16.4183 16.9183 20 12.5 20C8.08172 20 4.5 16.4183 4.5 12C4.5 7.58172 8.08172 4 12.5 4C16.9183 4 20.5 7.58172 20.5 12Z" fill="#A4F65F"/>
<path d="M15.5 11.9995H12.5M12.5 11.9995H9.5M12.5 11.9995V14.9995M12.5 11.9995L12.5 8.99951M20.5 12C20.5 16.4183 16.9183 20 12.5 20C8.08172 20 4.5 16.4183 4.5 12C4.5 7.58172 8.08172 4 12.5 4C16.9183 4 20.5 7.58172 20.5 12Z" stroke="#4CB01D" stroke-width="1.5" stroke-linecap="round"/>
</g>
</svg>
