<svg width="24" height="24" viewBox="0 0 24 24" fill="none" xmlns="http://www.w3.org/2000/svg">
<path d="M5.09202 21.782L4.75152 22.4503H4.75153L5.09202 21.782ZM4.21799 20.908L3.54973 21.2485L3.54973 21.2485L4.21799 20.908ZM19.782 20.908L20.4503 21.2485L19.782 20.908ZM18.908 21.782L19.2485 22.4503H19.2485L18.908 21.782ZM18.908 4.21805L19.2485 3.54979L18.908 4.21805ZM19.782 5.09208L19.1138 5.43257V5.43257L19.782 5.09208ZM5.09202 4.21805L5.43251 4.8863L5.09202 4.21805ZM4.21799 5.09208L3.54973 4.75159L4.21799 5.09208ZM8 8.25C7.58579 8.25 7.25 8.58579 7.25 9C7.25 9.41421 7.58579 9.75 8 9.75V8.25ZM16 9.75C16.4142 9.75 16.75 9.41421 16.75 9C16.75 8.58579 16.4142 8.25 16 8.25V9.75ZM8 12.25C7.58579 12.25 7.25 12.5858 7.25 13C7.25 13.4142 7.58579 13.75 8 13.75V12.25ZM12 13.75C12.4142 13.75 12.75 13.4142 12.75 13C12.75 12.5858 12.4142 12.25 12 12.25V13.75ZM8 16.25C7.58579 16.25 7.25 16.5858 7.25 17C7.25 17.4142 7.58579 17.75 8 17.75V16.25ZM16 17.75C16.4142 17.75 16.75 17.4142 16.75 17C16.75 16.5858 16.4142 16.25 16 16.25V17.75ZM19.25 7.20006V18.8H20.75V7.20006H19.25ZM16.8 21.25H7.2V22.75H16.8V21.25ZM4.75 18.8V7.20006H3.25V18.8H4.75ZM7.2 21.25C6.62757 21.25 6.24336 21.2494 5.94748 21.2252C5.66035 21.2018 5.52307 21.1599 5.43251 21.1138L4.75153 22.4503C5.08879 22.6221 5.44545 22.6892 5.82533 22.7203C6.19646 22.7506 6.65232 22.75 7.2 22.75V21.25ZM3.25 18.8C3.25 19.3477 3.24942 19.8035 3.27974 20.1747C3.31078 20.5546 3.37789 20.9112 3.54973 21.2485L4.88624 20.5675C4.8401 20.4769 4.79822 20.3396 4.77476 20.0525C4.75058 19.7566 4.75 19.3724 4.75 18.8H3.25ZM5.43251 21.1138C5.19731 20.9939 5.00608 20.8027 4.88624 20.5675L3.54973 21.2485C3.81338 21.7659 4.23408 22.1866 4.75152 22.4503L5.43251 21.1138ZM19.25 18.8C19.25 19.3724 19.2494 19.7566 19.2252 20.0525C19.2018 20.3396 19.1599 20.4769 19.1138 20.5675L20.4503 21.2485C20.6221 20.9112 20.6892 20.5546 20.7203 20.1747C20.7506 19.8035 20.75 19.3477 20.75 18.8H19.25ZM16.8 22.75C17.3477 22.75 17.8035 22.7506 18.1747 22.7203C18.5546 22.6892 18.9112 22.6221 19.2485 22.4503L18.5675 21.1138C18.4769 21.1599 18.3396 21.2018 18.0525 21.2252C17.7566 21.2494 17.3724 21.25 16.8 21.25V22.75ZM19.1138 20.5675C18.9939 20.8027 18.8027 20.9939 18.5675 21.1138L19.2485 22.4503C19.7659 22.1866 20.1866 21.7659 20.4503 21.2485L19.1138 20.5675ZM16.8 4.75006C17.3724 4.75006 17.7566 4.75064 18.0525 4.77482C18.3396 4.79828 18.4769 4.84016 18.5675 4.8863L19.2485 3.54979C18.9112 3.37795 18.5546 3.31084 18.1747 3.2798C17.8035 3.24948 17.3477 3.25006 16.8 3.25006V4.75006ZM20.75 7.20006C20.75 6.65238 20.7506 6.19652 20.7203 5.82539C20.6892 5.4455 20.6221 5.08885 20.4503 4.75159L19.1138 5.43257C19.1599 5.52313 19.2018 5.66041 19.2252 5.94754C19.2494 6.24342 19.25 6.62763 19.25 7.20006H20.75ZM18.5675 4.8863C18.8027 5.00614 18.9939 5.19737 19.1138 5.43257L20.4503 4.75159C20.1866 4.23414 19.7659 3.81344 19.2485 3.54979L18.5675 4.8863ZM7.2 3.25006C6.65232 3.25006 6.19646 3.24948 5.82533 3.2798C5.44544 3.31084 5.08879 3.37795 4.75153 3.54979L5.43251 4.8863C5.52307 4.84016 5.66035 4.79828 5.94748 4.77482C6.24336 4.75064 6.62757 4.75006 7.2 4.75006V3.25006ZM4.75 7.20006C4.75 6.62763 4.75058 6.24342 4.77476 5.94754C4.79822 5.66041 4.8401 5.52313 4.88624 5.43257L3.54973 4.75159C3.37789 5.08885 3.31078 5.4455 3.27974 5.82539C3.24942 6.19652 3.25 6.65238 3.25 7.20006H4.75ZM4.75153 3.54979C4.23408 3.81344 3.81338 4.23414 3.54973 4.75159L4.88624 5.43257C5.00608 5.19737 5.19731 5.00614 5.43251 4.8863L4.75153 3.54979ZM7.2 4.75006H8V3.25006H7.2V4.75006ZM16.8 3.25006H16V4.75006H16.8V3.25006ZM8.5 2.75H15.5V1.25H8.5V2.75ZM15.25 2.5V4.5H16.75V2.5H15.25ZM15.5 4.25H8.5V5.75H15.5V4.25ZM8.75 4.5V2.5H7.25V4.5H8.75ZM8.5 4.25C8.63807 4.25 8.75 4.36193 8.75 4.5H7.25C7.25 5.19036 7.80964 5.75 8.5 5.75V4.25ZM15.25 4.5C15.25 4.36193 15.3619 4.25 15.5 4.25V5.75C16.1904 5.75 16.75 5.19036 16.75 4.5H15.25ZM15.5 2.75C15.3619 2.75 15.25 2.63807 15.25 2.5H16.75C16.75 1.80964 16.1904 1.25 15.5 1.25V2.75ZM8.5 1.25C7.80964 1.25 7.25 1.80964 7.25 2.5H8.75C8.75 2.63807 8.63807 2.75 8.5 2.75V1.25ZM8 9.75H16V8.25H8V9.75ZM8 13.75H12V12.25H8V13.75ZM8 17.75H16V16.25H8V17.75Z" fill="black"/>
</svg>
