<svg width="16" height="17" viewBox="0 0 16 17" fill="none" xmlns="http://www.w3.org/2000/svg">
<path d="M10.666 7.16659C10.666 8.63934 9.47211 9.83325 7.99935 9.83325C6.52659 9.83325 5.33268 8.63934 5.33268 7.16659C5.33268 5.69383 6.52659 4.49992 7.99935 4.49992C9.47211 4.49992 10.666 5.69383 10.666 7.16659Z" fill="white"/>
<path d="M13.3327 7.16659C13.3327 10.1121 9.33268 15.1666 7.99935 15.1666C6.66602 15.1666 2.66602 10.1121 2.66602 7.16659C2.66602 4.22107 5.05383 1.83325 7.99935 1.83325C10.9449 1.83325 13.3327 4.22107 13.3327 7.16659Z" fill="white"/>
<path d="M10.666 7.16659C10.666 8.63934 9.47211 9.83325 7.99935 9.83325C6.52659 9.83325 5.33268 8.63934 5.33268 7.16659C5.33268 5.69383 6.52659 4.49992 7.99935 4.49992C9.47211 4.49992 10.666 5.69383 10.666 7.16659Z" stroke="#111111" stroke-width="1.5"/>
<path d="M13.3327 7.16659C13.3327 10.1121 9.33268 15.1666 7.99935 15.1666C6.66602 15.1666 2.66602 10.1121 2.66602 7.16659C2.66602 4.22107 5.05383 1.83325 7.99935 1.83325C10.9449 1.83325 13.3327 4.22107 13.3327 7.16659Z" stroke="#111111" stroke-width="1.5"/>
</svg>
