<svg width="18" height="19" viewBox="0 0 18 19" fill="none" xmlns="http://www.w3.org/2000/svg">
<path d="M8.6212 2.53542C8.77612 2.22151 9.22374 2.22151 9.37867 2.53542L11.3842 6.59901C11.4457 6.72367 11.5646 6.81007 11.7022 6.83006L16.1866 7.48168C16.533 7.53202 16.6714 7.95774 16.4207 8.20208L13.1757 11.3651C13.0762 11.4622 13.0308 11.602 13.0542 11.739L13.8203 16.2053C13.8795 16.5503 13.5173 16.8134 13.2075 16.6505L9.19647 14.5418C9.07343 14.4771 8.92644 14.4771 8.8034 14.5418L4.79239 16.6505C4.48254 16.8134 4.12041 16.5503 4.17958 16.2053L4.94562 11.739C4.96912 11.602 4.92369 11.4622 4.82415 11.3651L1.57918 8.20208C1.32851 7.95774 1.46683 7.53202 1.81325 7.48168L6.29769 6.83006C6.43525 6.81007 6.55417 6.72367 6.61569 6.59901L8.6212 2.53542Z" fill="#ECECEC"/>
</svg>
