<svg width="16" height="17" viewBox="0 0 16 17" fill="none" xmlns="http://www.w3.org/2000/svg">
<path d="M5.98619 7.00352C6.41015 7.88654 6.98809 8.71414 7.72002 9.44607C8.45195 10.178 9.27956 10.7559 10.1626 11.1799C10.2385 11.2164 10.2765 11.2346 10.3246 11.2486C10.4953 11.2984 10.705 11.2626 10.8497 11.1591C10.8904 11.1299 10.9252 11.0951 10.9948 11.0255C11.2078 10.8125 11.3143 10.7061 11.4213 10.6364C11.8251 10.3739 12.3457 10.3739 12.7495 10.6364C12.8565 10.7061 12.963 10.8125 13.176 11.0255L13.2947 11.1442C13.6184 11.4679 13.7803 11.6298 13.8682 11.8036C14.0431 12.1493 14.0431 12.5576 13.8682 12.9033C13.7803 13.0772 13.6184 13.239 13.2947 13.5628L13.1987 13.6588C12.8761 13.9814 12.7147 14.1427 12.4954 14.2659C12.2521 14.4026 11.8741 14.5009 11.595 14.5001C11.3434 14.4993 11.1715 14.4505 10.8277 14.3529C8.97995 13.8285 7.23637 12.839 5.78175 11.3843C4.32714 9.92973 3.3376 8.18615 2.81315 6.33839C2.71556 5.99456 2.66677 5.82265 2.66602 5.5711C2.66519 5.29198 2.76348 4.91402 2.90019 4.67066C3.02338 4.45135 3.18469 4.29004 3.50731 3.96743L3.60333 3.87141C3.92705 3.54769 4.08891 3.38582 4.26275 3.2979C4.60847 3.12303 5.01676 3.12303 5.36248 3.2979C5.53632 3.38582 5.69818 3.54768 6.0219 3.87141L6.14061 3.99011C6.35357 4.20307 6.46004 4.30955 6.52966 4.41662C6.7922 4.82042 6.7922 5.34098 6.52966 5.74477C6.46005 5.85184 6.35357 5.95832 6.14061 6.17128C6.07097 6.24091 6.03616 6.27573 6.00702 6.31643C5.90346 6.46106 5.8677 6.67076 5.91748 6.84153C5.93149 6.88959 5.94972 6.92756 5.98619 7.00352Z" fill="white" stroke="#111111" stroke-width="1.5" stroke-linejoin="round"/>
</svg>
