<svg width="17" height="16" viewBox="0 0 17 16" fill="none" xmlns="http://www.w3.org/2000/svg">
<g clip-path="url(#clip0_3115_3609)">
<path d="M8.33984 16C3.92384 16 0.339844 12.416 0.339844 8C0.339844 3.584 3.92384 0 8.33984 0C12.7558 0 16.3398 3.584 16.3398 8C16.3398 12.416 12.7558 16 8.33984 16ZM9.13984 4H7.53984V5.6H9.13984V4ZM9.13984 7.2H7.53984V12H9.13984V7.2Z" fill="#111111"/>
<path d="M8.33984 16C3.92384 16 0.339844 12.416 0.339844 8C0.339844 3.584 3.92384 0 8.33984 0C12.7558 0 16.3398 3.584 16.3398 8C16.3398 12.416 12.7558 16 8.33984 16ZM9.13984 4H7.53984V5.6H9.13984V4ZM9.13984 7.2H7.53984V12H9.13984V7.2Z" fill="black" fill-opacity="0.2"/>
<path d="M8.33984 16C3.92384 16 0.339844 12.416 0.339844 8C0.339844 3.584 3.92384 0 8.33984 0C12.7558 0 16.3398 3.584 16.3398 8C16.3398 12.416 12.7558 16 8.33984 16ZM9.13984 4H7.53984V5.6H9.13984V4ZM9.13984 7.2H7.53984V12H9.13984V7.2Z" fill="black" fill-opacity="0.2"/>
</g>
<defs>
<clipPath id="clip0_3115_3609">
<rect width="16" height="16" fill="white" transform="translate(0.339844)"/>
</clipPath>
</defs>
</svg>
