<svg width="16" height="16" viewBox="0 0 16 16" fill="none" xmlns="http://www.w3.org/2000/svg">
<g clip-path="url(#clip0_482_7948)">
<path d="M8 16C3.584 16 0 12.416 0 8C0 3.584 3.584 -4.76837e-07 8 -4.76837e-07C12.416 -4.76837e-07 16 3.584 16 8C16 12.416 12.416 16 8 16ZM8.8 4H7.2V5.6H8.8V4ZM8.8 7.2H7.2V12H8.8V7.2Z" fill="#111111"/>
<path d="M8 16C3.584 16 0 12.416 0 8C0 3.584 3.584 -4.76837e-07 8 -4.76837e-07C12.416 -4.76837e-07 16 3.584 16 8C16 12.416 12.416 16 8 16ZM8.8 4H7.2V5.6H8.8V4ZM8.8 7.2H7.2V12H8.8V7.2Z" fill="black" fill-opacity="0.2"/>
<path d="M8 16C3.584 16 0 12.416 0 8C0 3.584 3.584 -4.76837e-07 8 -4.76837e-07C12.416 -4.76837e-07 16 3.584 16 8C16 12.416 12.416 16 8 16ZM8.8 4H7.2V5.6H8.8V4ZM8.8 7.2H7.2V12H8.8V7.2Z" fill="black" fill-opacity="0.2"/>
</g>
<defs>
<clipPath id="clip0_482_7948">
<rect width="16" height="16" fill="white"/>
</clipPath>
</defs>
</svg>
