<svg width="20" height="20" viewBox="0 0 20 20" fill="none" xmlns="http://www.w3.org/2000/svg">
<path d="M1.66602 6.66659H18.3327M4.99935 13.3333H8.33268M11.666 13.3333H14.9993M4.33268 16.6666H15.666C16.5994 16.6666 17.0661 16.6666 17.4227 16.4849C17.7363 16.3251 17.9912 16.0702 18.151 15.7566C18.3327 15.4 18.3327 14.9333 18.3327 13.9999V5.99992C18.3327 5.0665 18.3327 4.59979 18.151 4.24327C17.9912 3.92966 17.7363 3.6747 17.4227 3.51491C17.0661 3.33325 16.5994 3.33325 15.666 3.33325H4.33268C3.39926 3.33325 2.93255 3.33325 2.57603 3.51491C2.26243 3.6747 2.00746 3.92966 1.84767 4.24327C1.66602 4.59979 1.66602 5.0665 1.66602 5.99992V13.9999C1.66602 14.9333 1.66602 15.4 1.84767 15.7566C2.00746 16.0702 2.26243 16.3251 2.57603 16.4849C2.93255 16.6666 3.39926 16.6666 4.33268 16.6666Z" stroke="#A4F65F" stroke-width="1.5" stroke-linecap="round"/>
</svg>
