<svg width="24" height="24" viewBox="0 0 24 24" fill="none" xmlns="http://www.w3.org/2000/svg">
<path fill-rule="evenodd" clip-rule="evenodd" d="M9.79321 5.1498C10.85 5.1498 11.8633 5.33903 12.8019 5.68592C13.0006 5.75935 13.1334 5.94613 13.1651 6.15869C13.5565 8.78652 15.453 10.9133 17.9347 11.6052C18.1386 11.662 18.3055 11.8181 18.3539 12.0274C18.506 12.6849 18.5864 13.3703 18.5864 14.0749C18.5864 19.0041 14.6496 23 9.79321 23C4.93685 23 1 19.0041 1 14.0749C1 9.1457 4.93685 5.1498 9.79321 5.1498Z" fill="#ABE977"/>
<path d="M19.8161 2V8.6006M16.5761 5.31494H23M9.79321 5.1498C10.85 5.1498 11.8633 5.33903 12.8019 5.68592C13.0006 5.75935 13.1334 5.94613 13.1651 6.15869C13.5565 8.78652 15.453 10.9133 17.9347 11.6052C18.1386 11.662 18.3055 11.8181 18.3539 12.0274C18.506 12.6849 18.5864 13.3703 18.5864 14.0749C18.5864 19.0041 14.6496 23 9.79321 23C4.93685 23 1 19.0041 1 14.0749C1 9.1457 4.93685 5.1498 9.79321 5.1498Z" stroke="#111111" stroke-width="1.5" stroke-linecap="round"/>
<path d="M7.31997 10.9425H7.2291V11.0168H7.31997V10.9425Z" fill="#ABE977"/>
<path d="M12.7837 10.9425H12.7029V11.0168H12.7837V10.9425Z" fill="#ABE977"/>
<path d="M7.48489 15.4587C7.26952 15.1049 6.8081 14.9927 6.45428 15.208C6.10046 15.4234 5.98822 15.8848 6.20359 16.2386L7.48489 15.4587ZM13.8102 16.2386C14.0256 15.8848 13.9134 15.4234 13.5595 15.208C13.2057 14.9927 12.7443 15.1049 12.5289 15.4587L13.8102 16.2386ZM7.2291 10.9425V10.1925C6.81489 10.1925 6.4791 10.5283 6.4791 10.9425H7.2291ZM7.31997 10.9425H8.06997C8.06997 10.5283 7.73419 10.1925 7.31997 10.1925V10.9425ZM12.7029 10.9425V10.1925C12.2887 10.1925 11.9529 10.5283 11.9529 10.9425H12.7029ZM12.7837 10.9425H13.5337C13.5337 10.5283 13.1979 10.1925 12.7837 10.1925V10.9425ZM7.31997 11.0168V11.7668C7.73419 11.7668 8.06997 11.431 8.06997 11.0168H7.31997ZM7.2291 11.0168H6.4791C6.4791 11.431 6.81489 11.7668 7.2291 11.7668V11.0168ZM12.7837 11.0168V11.7668C13.1979 11.7668 13.5337 11.431 13.5337 11.0168H12.7837ZM12.7029 11.0168H11.9529C11.9529 11.431 12.2887 11.7668 12.7029 11.7668V11.0168ZM10.0069 16.9163C8.96031 16.9163 8.02539 16.3467 7.48489 15.4587L6.20359 16.2386C6.9934 17.5362 8.39426 18.4163 10.0069 18.4163V16.9163ZM12.5289 15.4587C11.9884 16.3467 11.0535 16.9163 10.0069 16.9163V18.4163C11.6196 18.4163 13.0204 17.5362 13.8102 16.2386L12.5289 15.4587ZM7.2291 11.6925H7.31997V10.1925H7.2291V11.6925ZM12.7029 11.6925H12.7837V10.1925H12.7029V11.6925ZM6.56997 10.9425V11.0168H8.06997V10.9425H6.56997ZM7.31997 10.2668H7.2291V11.7668H7.31997V10.2668ZM7.9791 11.0168V10.9425H6.4791V11.0168H7.9791ZM12.0337 10.9425V11.0168H13.5337V10.9425H12.0337ZM12.7837 10.2668H12.7029V11.7668H12.7837V10.2668ZM13.4529 11.0168V10.9425H11.9529V11.0168H13.4529Z" fill="#111111"/>
</svg>
