<svg width="18" height="18" viewBox="0 0 18 18" fill="none" xmlns="http://www.w3.org/2000/svg">
<path d="M15.75 10.95V7.44294C15.75 6.79907 15.75 6.47713 15.7008 6.20875C15.476 4.98311 14.5169 4.02405 13.2913 3.79923C13.0229 3.75 12.7009 3.75 12.0571 3.75C12.0467 3.75 12.0416 3.75 12.0368 3.74939C12.0154 3.74663 11.9961 3.73476 11.9841 3.71682C11.9814 3.71284 11.9791 3.70821 11.9745 3.69896L11.9133 3.57669C11.6725 3.0951 11.5521 2.8543 11.3725 2.67837C11.2137 2.5228 11.0222 2.40448 10.8121 2.33198C10.5744 2.25 10.3052 2.25 9.76672 2.25H8.23328C7.69484 2.25 7.42563 2.25 7.18794 2.33198C6.97776 2.40448 6.78632 2.5228 6.62747 2.67837C6.44785 2.8543 6.32745 3.0951 6.08666 3.57669L6.02552 3.69896C6.02089 3.70821 6.01858 3.71284 6.0159 3.71682C6.00385 3.73476 5.98465 3.74663 5.96321 3.74939C5.95845 3.75 5.95328 3.75 5.94294 3.75C5.29907 3.75 4.97713 3.75 4.70875 3.79923C3.48311 4.02405 2.52405 4.98311 2.29923 6.20875C2.25 6.47713 2.25 6.79907 2.25 7.44294V10.95C2.25 12.6302 2.25 13.4702 2.57698 14.112C2.8646 14.6765 3.32354 15.1354 3.88803 15.423C4.52976 15.75 5.36984 15.75 7.05 15.75H10.95C12.6302 15.75 13.4702 15.75 14.112 15.423C14.6765 15.1354 15.1354 14.6765 15.423 14.112C15.75 13.4702 15.75 12.6302 15.75 10.95Z" fill="#111111"/>
<path d="M12 9.75C12 11.4069 10.6569 12.75 9 12.75C7.34315 12.75 6 11.4069 6 9.75C6 8.09315 7.34315 6.75 9 6.75C10.6569 6.75 12 8.09315 12 9.75Z" fill="#111111"/>
<path d="M6.02552 3.69896L5.5783 3.47536L5.5783 3.47536L6.02552 3.69896ZM6.08666 3.57669L5.63944 3.35308L5.63944 3.35308L6.08666 3.57669ZM11.9133 3.57669L11.4661 3.80029L11.4661 3.8003L11.9133 3.57669ZM11.9745 3.69896L12.4217 3.47536L12.4217 3.47536L11.9745 3.69896ZM12.0368 3.74939L11.973 4.24531L11.973 4.24531L12.0368 3.74939ZM11.9841 3.71682L11.569 3.99562L11.569 3.99563L11.9841 3.71682ZM10.8121 2.33198L10.9751 1.85931L10.9751 1.85931L10.8121 2.33198ZM11.3725 2.67837L11.7224 2.32116L11.7224 2.32116L11.3725 2.67837ZM6.62747 2.67837L6.27761 2.32116L6.27761 2.32116L6.62747 2.67837ZM7.18794 2.33198L7.35098 2.80465L7.35098 2.80465L7.18794 2.33198ZM5.96321 3.74939L5.89945 3.25347L5.89945 3.25347L5.96321 3.74939ZM6.0159 3.71682L5.60086 3.438L5.60086 3.43801L6.0159 3.71682ZM3.88803 15.423L4.11502 14.9775L4.11502 14.9775L3.88803 15.423ZM2.57698 14.112L3.02248 13.885L3.02248 13.885L2.57698 14.112ZM15.423 14.112L14.9775 13.885L14.9775 13.885L15.423 14.112ZM14.112 15.423L13.885 14.9775L13.885 14.9775L14.112 15.423ZM15.7008 6.20875L16.1926 6.11854L16.1926 6.11854L15.7008 6.20875ZM13.2913 3.79923L13.201 4.29102L13.201 4.29102L13.2913 3.79923ZM2.29923 6.20875L2.79102 6.29895L2.79102 6.29895L2.29923 6.20875ZM4.70875 3.79923L4.61854 3.30743L4.70875 3.79923ZM15.25 7.44294V10.95H16.25V7.44294H15.25ZM10.95 15.25H7.05V16.25H10.95V15.25ZM2.75 10.95V7.44294H1.75V10.95H2.75ZM6.47273 3.92257L6.53387 3.80029L5.63944 3.35308L5.5783 3.47536L6.47273 3.92257ZM8.23328 2.75H9.76672V1.75H8.23328V2.75ZM11.4661 3.8003L11.5273 3.92257L12.4217 3.47536L12.3606 3.35308L11.4661 3.8003ZM12.0571 3.25C12.0541 3.25 12.0532 3.25 12.0526 3.25C12.052 3.24999 12.0539 3.25 12.0569 3.25007C12.0632 3.25022 12.0794 3.25076 12.1005 3.25347L11.973 4.24531C11.9989 4.24863 12.0201 4.24947 12.0328 4.24978C12.0434 4.25003 12.0542 4.25 12.0571 4.25V3.25ZM11.5273 3.92257C11.5285 3.92512 11.5334 3.93482 11.5383 3.94416C11.5442 3.95535 11.5545 3.97398 11.569 3.99562L12.3992 3.43802C12.411 3.45568 12.4188 3.47 12.4217 3.47557C12.4231 3.47822 12.424 3.47985 12.4237 3.47937C12.4234 3.47885 12.423 3.47798 12.4217 3.47536L11.5273 3.92257ZM12.1005 3.25347C12.222 3.26909 12.3309 3.33635 12.3991 3.43801L11.569 3.99563C11.6614 4.13317 11.8087 4.22418 11.973 4.24531L12.1005 3.25347ZM9.76672 2.75C10.3414 2.75 10.5095 2.75652 10.649 2.80465L10.9751 1.85931C10.6393 1.74348 10.2689 1.75 9.76672 1.75V2.75ZM12.3606 3.35308C12.136 2.90391 11.9762 2.56973 11.7224 2.32116L11.0227 3.03558C11.1281 3.13887 11.2091 3.28628 11.4661 3.80029L12.3606 3.35308ZM10.649 2.80465C10.7891 2.85299 10.9168 2.93187 11.0227 3.03558L11.7224 2.32116C11.5106 2.11373 11.2553 1.95597 10.9751 1.85931L10.649 2.80465ZM6.53387 3.80029C6.79088 3.28628 6.87188 3.13887 6.97733 3.03558L6.27761 2.32116C6.02382 2.56973 5.86403 2.90391 5.63944 3.35308L6.53387 3.80029ZM8.23328 1.75C7.73109 1.75 7.36073 1.74348 7.02491 1.85931L7.35098 2.80465C7.49052 2.75652 7.6586 2.75 8.23328 2.75V1.75ZM6.97733 3.03558C7.08323 2.93187 7.21085 2.85299 7.35098 2.80465L7.02491 1.85931C6.74466 1.95597 6.4894 2.11373 6.27761 2.32116L6.97733 3.03558ZM5.94294 4.25C5.9458 4.25 5.95662 4.25003 5.9672 4.24978C5.97986 4.24947 6.00111 4.24863 6.02697 4.24531L5.89945 3.25347C5.92055 3.25076 5.93683 3.25022 5.94314 3.25007C5.94613 3.25 5.94796 3.24999 5.94742 3.25C5.94684 3.25 5.94587 3.25 5.94294 3.25V4.25ZM5.5783 3.47536C5.57699 3.47798 5.57656 3.47885 5.57629 3.47937C5.57605 3.47985 5.57687 3.47822 5.57828 3.47557C5.58123 3.46999 5.589 3.45566 5.60086 3.438L6.43094 3.99564C6.44549 3.97399 6.45575 3.95536 6.46169 3.94417C6.46664 3.93482 6.47146 3.92512 6.47273 3.92256L5.5783 3.47536ZM6.02697 4.24531C6.19132 4.22418 6.33856 4.13317 6.43095 3.99563L5.60086 3.43801C5.66915 3.33635 5.77798 3.26909 5.89945 3.25347L6.02697 4.24531ZM7.05 15.25C6.20167 15.25 5.59549 15.2496 5.12032 15.2108C4.65099 15.1724 4.35366 15.0991 4.11502 14.9775L3.66103 15.8685C4.06413 16.0739 4.50771 16.1641 5.03889 16.2075C5.56423 16.2504 6.21817 16.25 7.05 16.25V15.25ZM1.75 10.95C1.75 11.7818 1.74961 12.4358 1.79253 12.9611C1.83593 13.4923 1.92609 13.9359 2.13148 14.339L3.02248 13.885C2.90089 13.6463 2.82756 13.349 2.78921 12.8797C2.75039 12.4045 2.75 11.7983 2.75 10.95H1.75ZM4.11502 14.9775C3.64462 14.7378 3.26217 14.3554 3.02248 13.885L2.13148 14.339C2.46703 14.9975 3.00247 15.533 3.66103 15.8685L4.11502 14.9775ZM15.25 10.95C15.25 11.7983 15.2496 12.4045 15.2108 12.8797C15.1724 13.349 15.0991 13.6463 14.9775 13.885L15.8685 14.339C16.0739 13.9359 16.1641 13.4923 16.2075 12.9611C16.2504 12.4358 16.25 11.7818 16.25 10.95H15.25ZM10.95 16.25C11.7818 16.25 12.4358 16.2504 12.9611 16.2075C13.4923 16.1641 13.9359 16.0739 14.339 15.8685L13.885 14.9775C13.6463 15.0991 13.349 15.1724 12.8797 15.2108C12.4045 15.2496 11.7983 15.25 10.95 15.25V16.25ZM14.9775 13.885C14.7378 14.3554 14.3554 14.7378 13.885 14.9775L14.339 15.8685C14.9975 15.533 15.533 14.9975 15.8685 14.339L14.9775 13.885ZM16.25 7.44294C16.25 6.82118 16.2521 6.44293 16.1926 6.11854L15.209 6.29895C15.2479 6.51134 15.25 6.77696 15.25 7.44294H16.25ZM12.0571 4.25C12.723 4.25 12.9887 4.25207 13.201 4.29102L13.3815 3.30743C13.0571 3.24793 12.6788 3.25 12.0571 3.25V4.25ZM16.1926 6.11854C15.9303 4.68862 14.8114 3.56972 13.3815 3.30743L13.201 4.29102C14.2224 4.47837 15.0216 5.27759 15.209 6.29895L16.1926 6.11854ZM2.75 7.44294C2.75 6.77696 2.75207 6.51134 2.79102 6.29895L1.80743 6.11854C1.74793 6.44293 1.75 6.82118 1.75 7.44294H2.75ZM5.94294 3.25C5.32118 3.25 4.94293 3.24793 4.61854 3.30743L4.79895 4.29102C5.01134 4.25207 5.27696 4.25 5.94294 4.25V3.25ZM2.79102 6.29895C2.97837 5.27759 3.77759 4.47837 4.79895 4.29102L4.61854 3.30743C3.18863 3.56972 2.06972 4.68863 1.80743 6.11854L2.79102 6.29895ZM11.5 9.75C11.5 11.1307 10.3807 12.25 9 12.25V13.25C10.933 13.25 12.5 11.683 12.5 9.75H11.5ZM9 12.25C7.61929 12.25 6.5 11.1307 6.5 9.75H5.5C5.5 11.683 7.067 13.25 9 13.25V12.25ZM6.5 9.75C6.5 8.36929 7.61929 7.25 9 7.25V6.25C7.067 6.25 5.5 7.817 5.5 9.75H6.5ZM9 7.25C10.3807 7.25 11.5 8.36929 11.5 9.75H12.5C12.5 7.817 10.933 6.25 9 6.25V7.25Z" fill="white"/>
</svg>
