<svg width="24" height="24" viewBox="0 0 24 24" fill="none" xmlns="http://www.w3.org/2000/svg">
<path d="M17.9347 11.6052L18.1361 10.8827L17.9347 11.6052ZM18.3539 12.0274L19.0847 11.8584L18.3539 12.0274ZM12.8019 5.68592L13.0619 4.98243L12.8019 5.68592ZM13.1651 6.15869L12.4233 6.26917L13.1651 6.15869ZM20.5661 2C20.5661 1.58579 20.2303 1.25 19.8161 1.25C19.4019 1.25 19.0661 1.58579 19.0661 2H20.5661ZM19.0661 8.6006C19.0661 9.01481 19.4019 9.3506 19.8161 9.3506C20.2303 9.3506 20.5661 9.01481 20.5661 8.6006H19.0661ZM16.5761 4.56494C16.1619 4.56494 15.8261 4.90073 15.8261 5.31494C15.8261 5.72916 16.1619 6.06494 16.5761 6.06494V4.56494ZM23 6.06494C23.4142 6.06494 23.75 5.72916 23.75 5.31494C23.75 4.90073 23.4142 4.56494 23 4.56494V6.06494ZM7.48504 15.4587C7.26967 15.1049 6.80825 14.9926 6.45443 15.208C6.10061 15.4234 5.98838 15.8848 6.20375 16.2386L7.48504 15.4587ZM13.8104 16.2386C14.0258 15.8848 13.9135 15.4234 13.5597 15.208C13.2059 14.9926 12.7445 15.1049 12.5291 15.4587L13.8104 16.2386ZM7.22926 10.9425V10.1925C6.81504 10.1925 6.47926 10.5283 6.47926 10.9425H7.22926ZM7.32013 10.9425H8.07013C8.07013 10.5283 7.73434 10.1925 7.32013 10.1925V10.9425ZM12.703 10.9425V10.1925C12.2888 10.1925 11.953 10.5283 11.953 10.9425H12.703ZM12.7838 10.9425H13.5338C13.5338 10.5283 13.198 10.1925 12.7838 10.1925V10.9425ZM7.32013 11.0168V11.7668C7.73434 11.7668 8.07013 11.431 8.07013 11.0168H7.32013ZM7.22926 11.0168H6.47926C6.47926 11.431 6.81504 11.7668 7.22926 11.7668V11.0168ZM12.7838 11.0168V11.7668C13.198 11.7668 13.5338 11.431 13.5338 11.0168H12.7838ZM12.703 11.0168H11.953C11.953 11.431 12.2888 11.7668 12.703 11.7668V11.0168ZM13.0619 4.98243C12.0414 4.60528 10.9402 4.3998 9.79321 4.3998V5.8998C10.7598 5.8998 11.6851 6.07278 12.5419 6.38941L13.0619 4.98243ZM18.1361 10.8827C15.9413 10.2708 14.255 8.38516 13.9069 6.04821L12.4233 6.26917C12.858 9.18787 14.9647 11.5557 17.7333 12.3276L18.1361 10.8827ZM19.3364 14.0749C19.3364 13.3131 19.2494 12.5709 19.0847 11.8584L17.6232 12.1964C17.7625 12.7988 17.8364 13.4276 17.8364 14.0749H19.3364ZM9.79321 23.75C15.0743 23.75 19.3364 19.4077 19.3364 14.0749H17.8364C17.8364 18.6004 14.2249 22.25 9.79321 22.25V23.75ZM0.25 14.0749C0.25 19.4077 4.51215 23.75 9.79321 23.75V22.25C5.36156 22.25 1.75 18.6004 1.75 14.0749H0.25ZM9.79321 4.3998C4.51215 4.3998 0.25 8.74205 0.25 14.0749H1.75C1.75 9.54935 5.36156 5.8998 9.79321 5.8998V4.3998ZM17.7333 12.3276C17.7061 12.32 17.6441 12.2866 17.6232 12.1964L19.0847 11.8584C18.967 11.3495 18.5712 11.004 18.1361 10.8827L17.7333 12.3276ZM12.5419 6.38941C12.4955 6.37226 12.4641 6.34407 12.4467 6.32092C12.4304 6.29916 12.425 6.28086 12.4233 6.26917L13.9069 6.04821C13.8415 5.60931 13.557 5.16539 13.0619 4.98243L12.5419 6.38941ZM19.0661 2V8.6006H20.5661V2H19.0661ZM16.5761 6.06494H23V4.56494H16.5761V6.06494ZM10.0071 16.9163C8.96046 16.9163 8.02555 16.3467 7.48504 15.4587L6.20375 16.2386C6.99355 17.5362 8.39441 18.4163 10.0071 18.4163V16.9163ZM12.5291 15.4587C11.9886 16.3467 11.0537 16.9163 10.0071 16.9163V18.4163C11.6197 18.4163 13.0206 17.5362 13.8104 16.2386L12.5291 15.4587ZM7.22926 11.6925H7.32013V10.1925H7.22926V11.6925ZM12.703 11.6925H12.7838V10.1925H12.703V11.6925ZM6.57013 10.9425V11.0168H8.07013V10.9425H6.57013ZM7.32013 10.2668H7.22926V11.7668H7.32013V10.2668ZM7.97926 11.0168V10.9425H6.47926V11.0168H7.97926ZM12.0338 10.9425V11.0168H13.5338V10.9425H12.0338ZM12.7838 10.2668H12.703V11.7668H12.7838V10.2668ZM13.453 11.0168V10.9425H11.953V11.0168H13.453Z" fill="#888888"/>
</svg>
