<svg width="44" height="44" viewBox="0 0 44 44" fill="none" xmlns="http://www.w3.org/2000/svg">
<path d="M12 18H32M16 26H20M24 26H28M15.2 30H28.8C29.9201 30 30.4802 30 30.908 29.782C31.2843 29.5903 31.5903 29.2843 31.782 28.908C32 28.4802 32 27.9201 32 26.8V17.2C32 16.0799 32 15.5198 31.782 15.092C31.5903 14.7157 31.2843 14.4097 30.908 14.218C30.4802 14 29.9201 14 28.8 14H15.2C14.0799 14 13.5198 14 13.092 14.218C12.7157 14.4097 12.4097 14.7157 12.218 15.092C12 15.5198 12 16.0799 12 17.2V26.8C12 27.9201 12 28.4802 12.218 28.908C12.4097 29.2843 12.7157 29.5903 13.092 29.782C13.5198 30 14.0799 30 15.2 30Z" stroke="black" stroke-width="1.5" stroke-linecap="round"/>
</svg>
