<svg width="44" height="44" viewBox="0 0 44 44" fill="none" xmlns="http://www.w3.org/2000/svg">
<g filter="url(#filter0_ii_319_7395)">
<rect width="44" height="44" rx="22" fill="url(#paint0_linear_319_7395)"/>
<path d="M18 24.5351C15.6088 25.2267 14 26.5194 14 28C14 30.2091 17.5817 32 22 32C26.4183 32 30 30.2091 30 28C30 26.5194 28.3912 25.2267 26 24.5351M28 18.4C28 21.9346 23.5 28 22 28C20.5 28 16 21.9346 16 18.4C16 14.8654 18.6863 12 22 12C25.3137 12 28 14.8654 28 18.4ZM24 18C24 19.1046 23.1046 20 22 20C20.8954 20 20 19.1046 20 18C20 16.8954 20.8954 16 22 16C23.1046 16 24 16.8954 24 18Z" stroke="black" stroke-width="1.5"/>
</g>
<defs>
<filter id="filter0_ii_319_7395" x="0" y="-1" width="44" height="45" filterUnits="userSpaceOnUse" color-interpolation-filters="sRGB">
<feFlood flood-opacity="0" result="BackgroundImageFix"/>
<feBlend mode="normal" in="SourceGraphic" in2="BackgroundImageFix" result="shape"/>
<feColorMatrix in="SourceAlpha" type="matrix" values="0 0 0 0 0 0 0 0 0 0 0 0 0 0 0 0 0 0 127 0" result="hardAlpha"/>
<feOffset dy="-1"/>
<feGaussianBlur stdDeviation="0.5"/>
<feComposite in2="hardAlpha" operator="arithmetic" k2="-1" k3="1"/>
<feColorMatrix type="matrix" values="0 0 0 0 0 0 0 0 0 0 0 0 0 0 0 0 0 0 0.09 0"/>
<feBlend mode="normal" in2="shape" result="effect1_innerShadow_319_7395"/>
<feColorMatrix in="SourceAlpha" type="matrix" values="0 0 0 0 0 0 0 0 0 0 0 0 0 0 0 0 0 0 127 0" result="hardAlpha"/>
<feOffset dy="1"/>
<feComposite in2="hardAlpha" operator="arithmetic" k2="-1" k3="1"/>
<feColorMatrix type="matrix" values="0 0 0 0 1 0 0 0 0 1 0 0 0 0 1 0 0 0 0.5 0"/>
<feBlend mode="normal" in2="effect1_innerShadow_319_7395" result="effect2_innerShadow_319_7395"/>
</filter>
<linearGradient id="paint0_linear_319_7395" x1="10.4923" y1="1.26923" x2="50.5012" y2="22.7888" gradientUnits="userSpaceOnUse">
<stop stop-color="#D5FFD1"/>
<stop offset="1" stop-color="#BCF4B7"/>
</linearGradient>
</defs>
</svg>
