<svg width="18" height="18" viewBox="0 0 18 18" fill="none" xmlns="http://www.w3.org/2000/svg">
<path d="M8.69897 3.19619C8.82211 2.9346 9.17789 2.9346 9.30103 3.19619L10.8951 6.58252C10.944 6.6864 11.0385 6.7584 11.1478 6.77506L14.7122 7.31808C14.9876 7.36003 15.0975 7.71479 14.8983 7.91841L12.319 10.5543C12.2399 10.6352 12.2038 10.7517 12.2225 10.8658L12.8314 14.5878C12.8784 14.8753 12.5906 15.0945 12.3443 14.9588L9.15621 13.2015C9.05842 13.1476 8.94158 13.1476 8.84379 13.2015L5.65571 14.9588C5.40943 15.0945 5.12159 14.8753 5.16863 14.5878L5.7775 10.8658C5.79618 10.7517 5.76007 10.6352 5.68095 10.5543L3.10174 7.91841C2.9025 7.71479 3.01245 7.36003 3.28779 7.31808L6.85217 6.77506C6.96151 6.7584 7.05603 6.6864 7.10493 6.58252L8.69897 3.19619Z" stroke="#333333" stroke-width="1.5" stroke-linejoin="round"/>
</svg>
