<svg width="18" height="18" viewBox="0 0 18 18" fill="none" xmlns="http://www.w3.org/2000/svg">
<path d="M12.4528 8.53994C12.665 8.36316 12.6936 8.04788 12.5169 7.83574C12.3401 7.6236 12.0248 7.59494 11.8127 7.77172L12.4528 8.53994ZM9.14962 10.6418L8.82953 11.0259C9.01495 11.1804 9.28429 11.1804 9.46972 11.0259L9.14962 10.6418ZM6.48659 7.77172C6.27445 7.59494 5.95917 7.6236 5.78239 7.83574C5.6056 8.04788 5.63427 8.36316 5.8464 8.53994L6.48659 7.77172ZM11.8127 7.77172L8.82953 10.2577L9.46972 11.0259L12.4528 8.53994L11.8127 7.77172ZM9.46972 10.2577L6.48659 7.77172L5.8464 8.53994L8.82953 11.0259L9.46972 10.2577ZM15.25 9C15.25 12.4518 12.4518 15.25 9 15.25V16.25C13.0041 16.25 16.25 13.0041 16.25 9H15.25ZM9 15.25C5.54822 15.25 2.75 12.4518 2.75 9H1.75C1.75 13.0041 4.99594 16.25 9 16.25V15.25ZM2.75 9C2.75 5.54822 5.54822 2.75 9 2.75V1.75C4.99594 1.75 1.75 4.99594 1.75 9H2.75ZM9 2.75C12.4518 2.75 15.25 5.54822 15.25 9H16.25C16.25 4.99594 13.0041 1.75 9 1.75V2.75Z" fill="#CCCCCC"/>
</svg>
