<svg width="70" height="70" viewBox="0 0 70 70" fill="none" xmlns="http://www.w3.org/2000/svg">
<rect width="70" height="70" rx="35" fill="#111111"/>
<g clip-path="url(#clip0_680_15760)">
<path d="M62 21H56.1462L50.9087 31.1888L53.8402 36.9416H57.9294L60.861 31.3056H56.7111L62 21Z" fill="#BFFF89"/>
<path d="M19.3947 21L16.4631 26.636H24.5342L23.0077 29.5888H28.8661L33.3008 21H19.3947Z" fill="#BFFF89"/>
<path d="M23.0685 34.1236C24.1888 34.1236 25.2531 34.3303 26.2334 34.7034L27.9979 31.3011H20.0249L21.528 28.3483H15.6743L14.1712 31.3011H10.9269L8 36.9371H16.6079C18.1857 35.2112 20.4917 34.1191 23.0685 34.1191V34.1236Z" fill="#BFFF89"/>
<path d="M41.1011 21H35.2473L27.8345 35.5169C28.4647 35.9213 29.0295 36.4022 29.529 36.9461H37.8428L40.7696 31.3101H35.8308L41.1011 21.0045V21Z" fill="#BFFF89"/>
<path d="M23.0685 35.8045C19.2827 35.8045 16.2158 38.7573 16.2158 42.4023C16.2158 46.0472 19.2827 49 23.0685 49C26.8543 49 29.9212 46.0472 29.9212 42.4023C29.9212 38.7573 26.8543 35.8045 23.0685 35.8045ZM23.0685 43.6652C22.345 43.6652 21.7568 43.0989 21.7568 42.4023C21.7568 41.7056 22.345 41.1393 23.0685 41.1393C23.7921 41.1393 24.3802 41.7056 24.3802 42.4023C24.3802 43.0989 23.7921 43.6652 23.0685 43.6652Z" fill="#BFFF89"/>
<path d="M33.0068 46.1011C32.7173 46.1011 32.5213 46.0472 32.4092 45.9393C32.2972 45.8315 32.2552 45.6832 32.2879 45.4899C32.3205 45.2967 32.3999 45.0719 32.5353 44.8113L33.2588 43.418C33.3989 43.1528 33.5529 42.9236 33.721 42.7304C33.889 42.5371 34.0851 42.3888 34.3045 42.2854C34.5239 42.182 34.7806 42.1281 35.07 42.1281C35.3501 42.1281 35.5462 42.1776 35.6535 42.2719C35.7609 42.3663 35.8076 42.4967 35.7842 42.6674C35.7609 42.8382 35.6955 43.0315 35.5788 43.2517L35.4061 43.5843H34.5846L34.7853 43.1978C34.8226 43.1214 34.86 43.0495 34.888 42.9776C34.916 42.9056 34.9253 42.8517 34.9113 42.8023C34.8973 42.7573 34.846 42.7304 34.7573 42.7304C34.6686 42.7304 34.5939 42.7528 34.5239 42.8023C34.4585 42.8517 34.3978 42.9101 34.3511 42.982C34.3045 43.054 34.2578 43.1304 34.2158 43.2068L33.2728 45.0225C33.2261 45.1079 33.1935 45.1888 33.1701 45.2607C33.1468 45.3326 33.1468 45.391 33.1655 45.4315C33.1841 45.4764 33.2355 45.4944 33.3195 45.4944C33.4082 45.4944 33.4829 45.4719 33.5436 45.427C33.6043 45.382 33.6603 45.3191 33.707 45.2472C33.7536 45.1753 33.7957 45.0989 33.8377 45.0225L34.0477 44.618H34.8693L34.6966 44.9551C34.5846 45.1753 34.4492 45.3686 34.2951 45.5438C34.1411 45.7191 33.959 45.854 33.749 45.9528C33.5389 46.0517 33.2915 46.1011 33.0068 46.1011Z" fill="white"/>
<path d="M34.7759 46.0517L37.4974 42.191H38.4543L37.1566 46.0607H36.3817L36.6804 45.2427H36.1249L35.5694 46.0562H34.7759V46.0517ZM36.4657 44.7259H36.8672L37.446 43.2203L36.461 44.7259H36.4657Z" fill="white"/>
<path d="M37.9175 46.0562L39.9201 42.191H40.9657C41.2225 42.191 41.4278 42.2225 41.5866 42.2809C41.7453 42.3394 41.8386 42.4427 41.8666 42.591C41.8947 42.7394 41.8386 42.9506 41.6986 43.2203C41.6146 43.3776 41.5305 43.5214 41.4419 43.6427C41.3532 43.7686 41.2505 43.8764 41.1384 43.9663C41.0264 44.0562 40.891 44.1326 40.7323 44.191L40.2842 46.0607H39.4159L39.8967 44.3259H39.6587L38.7624 46.0562H37.9221H37.9175ZM39.9107 43.836H40.1441C40.2608 43.836 40.3682 43.8135 40.4522 43.7731C40.5409 43.7326 40.6203 43.6697 40.6856 43.5888C40.7557 43.5079 40.8163 43.409 40.877 43.2967C40.961 43.1304 40.9984 43.0045 40.9891 42.9101C40.9797 42.8158 40.891 42.7708 40.7323 42.7708H40.4616L39.9061 43.8405L39.9107 43.836Z" fill="white"/>
<path d="M42.9824 46.0697L44.5275 42.2045H45.2418L44.2988 44.4562L45.7506 42.209H46.3061L45.4472 44.4427L46.8382 42.2045H47.5431L45.083 46.0697H44.3502L45.2371 43.7326L43.7246 46.0652H42.9824V46.0697Z" fill="white"/>
<path d="M46.1379 46.0787L48.8594 42.218H49.8164L48.5186 46.0877H47.7437L48.0425 45.2697H47.487L46.9315 46.0832H46.1379V46.0787ZM47.8231 44.7528H48.2246L48.8034 43.2472L47.8184 44.7528H47.8231Z" fill="white"/>
<path d="M50.2551 46.1461C50.017 46.1461 49.8396 46.1011 49.7276 46.0157C49.6109 45.9304 49.5595 45.7955 49.5735 45.6157C49.5829 45.436 49.6622 45.2023 49.7976 44.9146L50.5725 44.8068C50.4885 44.9731 50.4371 45.1034 50.4091 45.2068C50.3811 45.3101 50.3811 45.382 50.4091 45.427C50.4325 45.4719 50.4791 45.4944 50.5492 45.4944C50.6379 45.4944 50.7079 45.4629 50.7686 45.4045C50.8246 45.3416 50.8713 45.2787 50.9086 45.2113C50.9926 45.054 51.0253 44.9191 51.0066 44.8068C50.988 44.6989 50.9459 44.5865 50.8759 44.4742L50.6985 44.182C50.6192 44.0562 50.5725 43.9169 50.5538 43.7596C50.5352 43.6023 50.5912 43.409 50.7079 43.1753C50.8759 42.8472 51.1047 42.5955 51.3847 42.4247C51.6648 42.2539 51.9683 42.1641 52.2997 42.1686C52.5004 42.1686 52.6498 42.2045 52.7338 42.2764C52.8225 42.3483 52.8692 42.4382 52.8738 42.5506C52.8785 42.6629 52.8598 42.7843 52.8178 42.9101C52.7758 43.036 52.7291 43.1573 52.6731 43.2697L51.9029 43.3596C51.9589 43.2472 52.0056 43.1438 52.0383 43.0629C52.0709 42.9775 52.0803 42.9146 52.0709 42.8652C52.0616 42.8202 52.0196 42.7978 51.9496 42.7978C51.8702 42.7978 51.7955 42.8292 51.7255 42.8966C51.6555 42.9641 51.6041 43.0315 51.5668 43.0989C51.4921 43.2427 51.4641 43.3596 51.4874 43.4495C51.5061 43.5393 51.5481 43.6337 51.6041 43.7326L51.7722 44.0157C51.8656 44.1596 51.9169 44.3214 51.9402 44.5011C51.9589 44.6809 51.9029 44.9056 51.7629 45.1753C51.6695 45.3551 51.5435 45.5214 51.3847 45.6697C51.226 45.818 51.0533 45.9348 50.8573 46.0202C50.6659 46.1056 50.4651 46.1461 50.2644 46.1461H50.2551Z" fill="white"/>
<path d="M52.0757 46.0922L54.0783 42.227H54.9185L54.1063 43.791H54.6945L55.5067 42.227H56.3516L54.349 46.0922H53.5041L54.3817 44.4023H53.7982L52.9206 46.0877H52.0804L52.0757 46.0922Z" fill="white"/>
<path d="M52.5892 38.6584L48.8361 31.3146L52.5845 23.9618L50.4979 23.9528L52.0477 21H46.194L44.6442 23.9528H41.6473L38.7204 29.5888H43.8599L39.2339 38.6584H30.738C30.8501 38.8742 30.9574 39.0944 31.0508 39.3236H44.7469L45.8999 37.0584L47.0529 39.3236H57.1079L57.4533 38.6584H52.5845H52.5892Z" fill="#BFFF89"/>
</g>
<defs>
<clipPath id="clip0_680_15760">
<rect width="54" height="28" fill="white" transform="translate(8 21)"/>
</clipPath>
</defs>
</svg>
