<svg width="59" height="59" viewBox="0 0 59 59" fill="none" xmlns="http://www.w3.org/2000/svg">
<path d="M40.3535 49.5019C41.8285 49.5019 44.7785 48.9119 44.7785 46.5519C44.7785 43.6019 40.3535 29.5894 42.566 24.4269C44.7785 19.2644 49.2035 22.2144 49.941 26.6394" stroke="#111111" stroke-width="0.936508"/>
<path fill-rule="evenodd" clip-rule="evenodd" d="M13.8037 12.1981C13.8037 11.1636 14.6423 10.3251 15.6767 10.3251H38.4807C39.5151 10.3251 40.3537 11.1637 40.3537 12.1981V51.6251H13.8037V12.1981ZM16.7534 14.2116C16.7534 13.6944 17.1727 13.2751 17.6899 13.2751H36.4669C36.9841 13.2751 37.4034 13.6944 37.4034 14.2116V24.8175C37.4034 27.4036 35.307 29.5001 32.7209 29.5001H17.6899C17.1727 29.5001 16.7534 29.0808 16.7534 28.5636V14.2116ZM35.9283 35.4001H34.4533V42.7751H35.9283V35.4001Z" fill="#111111"/>
<circle cx="19.7035" cy="16.225" r="1.475" fill="#111111"/>
<circle cx="24.1288" cy="16.225" r="1.475" fill="#111111"/>
<circle cx="28.5531" cy="16.225" r="1.475" fill="#111111"/>
<path d="M39.3335 21.5397H44.016C44.5332 21.5397 44.9525 21.959 44.9525 22.4762V25.2858C44.9525 25.803 44.5332 26.2223 44.016 26.2223H39.3335V21.5397Z" stroke="#111111" stroke-width="1.87302"/>
<rect x="47.4741" y="26.1975" width="4.94563" height="2.00769" transform="rotate(-12.7386 47.4741 26.1975)" fill="#111111"/>
<path d="M48.2324 25.5043C48.1183 24.9998 48.4348 24.4984 48.9393 24.3844L50.1968 24.1001C50.7013 23.986 51.2027 24.3026 51.3168 24.8071L51.6652 26.3484C51.7793 26.8529 51.4628 27.3543 50.9583 27.4683L49.7008 27.7526C49.1963 27.8667 48.6949 27.5502 48.5808 27.0457L48.2324 25.5043Z" fill="#111111"/>
<line x1="48.7625" y1="28.9876" x2="49.0086" y2="33.6454" stroke="#111111" stroke-width="0.936508"/>
<line x1="50.7793" y1="28.6865" x2="51.8148" y2="33.2345" stroke="#111111" stroke-width="0.936508"/>
<line x1="52.6706" y1="28.0669" x2="54.9696" y2="32.1253" stroke="#111111" stroke-width="0.936508"/>
</svg>
