<svg width="24" height="24" viewBox="0 0 24 24" fill="none" xmlns="http://www.w3.org/2000/svg">
<path d="M6 18.6882V11.1108C6 10.6676 6.13306 10.2336 6.38334 9.86073L10.6403 3.51823C11.0466 2.91284 11.9329 2.82164 12.4642 3.33054C13.3479 4.17692 13.8443 5.32487 13.8443 6.52184V8.12008C13.8443 9.39684 14.9249 10.4319 16.258 10.4319H20.7927C21.5631 10.4319 22.1363 11.1139 21.9716 11.8348L20.2936 19.1822C20.0512 20.2435 19.0699 21 17.9357 21H8.41364C7.08062 21 6 19.965 6 18.6882Z" fill="#E6FFE3"/>
<path d="M3 11V20M6 11.1108V18.6882C6 19.965 7.08062 21 8.41364 21H17.9357C19.0699 21 20.0512 20.2435 20.2936 19.1822L21.9716 11.8348C22.1363 11.1139 21.5631 10.4319 20.7927 10.4319H16.258C14.9249 10.4319 13.8443 9.39684 13.8443 8.12008V6.52184C13.8443 5.32487 13.3479 4.17692 12.4642 3.33054C11.9329 2.82164 11.0466 2.91284 10.6403 3.51823L6.38334 9.86073C6.13306 10.2336 6 10.6676 6 11.1108Z" stroke="#4CB01D" stroke-width="2" stroke-linecap="round"/>
</svg>
