<svg width="25" height="24" viewBox="0 0 25 24" fill="none" xmlns="http://www.w3.org/2000/svg">
<path fill-rule="evenodd" clip-rule="evenodd" d="M4.46592 6.20641C5.36605 5.30655 6.58673 4.80104 7.85952 4.80104C9.13231 4.80104 10.353 5.30655 11.2531 6.20641L12.6595 7.61161L14.0659 6.20641C14.5087 5.74796 15.0384 5.38229 15.624 5.13072C16.2096 4.87916 16.8395 4.74675 17.4768 4.74121C18.1141 4.73567 18.7462 4.85712 19.3361 5.09847C19.926 5.33982 20.4619 5.69623 20.9126 6.14691C21.3633 6.5976 21.7197 7.13353 21.9611 7.72343C22.2024 8.31333 22.3239 8.9454 22.3183 9.58274C22.3128 10.2201 22.1804 10.8499 21.9288 11.4356C21.6772 12.0212 21.3116 12.5508 20.8531 12.9936L12.6595 21.1884L4.46592 12.9936C3.56606 12.0935 3.06055 10.8728 3.06055 9.60001C3.06055 8.32722 3.56606 7.10654 4.46592 6.20641Z" fill="#E95C49"/>
</svg>
