<svg width="59" height="59" viewBox="0 0 59 59" fill="none" xmlns="http://www.w3.org/2000/svg">
<path d="M40.354 49.5018C41.829 49.5018 44.779 48.9118 44.779 46.5518C44.779 43.6018 40.354 29.5893 42.5665 24.4268C44.779 19.2643 49.204 22.2143 49.9415 26.6393" stroke="#4CB01D" stroke-width="0.936508"/>
<path fill-rule="evenodd" clip-rule="evenodd" d="M13.8037 12.198C13.8037 11.1636 14.6423 10.325 15.6767 10.325H38.4807C39.5151 10.325 40.3537 11.1636 40.3537 12.198V51.625H13.8037V12.198ZM16.7536 14.2115C16.7536 13.6943 17.1729 13.275 17.6901 13.275H36.4671C36.9843 13.275 37.4036 13.6943 37.4036 14.2115V24.8175C37.4036 27.4036 35.3071 29.5 32.721 29.5H17.6901C17.1729 29.5 16.7536 29.0807 16.7536 28.5635V14.2115ZM35.9285 35.4H34.4535V42.775H35.9285V35.4Z" fill="#4CB01D"/>
<circle cx="19.704" cy="16.225" r="1.475" fill="#4CB01D"/>
<circle cx="24.1288" cy="16.225" r="1.475" fill="#4CB01D"/>
<circle cx="28.5536" cy="16.225" r="1.475" fill="#4CB01D"/>
<path d="M39.3335 21.5397H44.016C44.5332 21.5397 44.9525 21.9589 44.9525 22.4762V25.2857C44.9525 25.8029 44.5332 26.2222 44.016 26.2222H39.3335V21.5397Z" stroke="#4CB01D" stroke-width="1.87302"/>
<rect x="47.4746" y="26.1974" width="4.94563" height="2.00769" transform="rotate(-12.7386 47.4746 26.1974)" fill="#4CB01D"/>
<path d="M48.2324 25.5043C48.1183 24.9998 48.4348 24.4984 48.9393 24.3844L50.1968 24.1001C50.7013 23.986 51.2027 24.3026 51.3168 24.8071L51.6652 26.3484C51.7793 26.8529 51.4628 27.3543 50.9583 27.4683L49.7008 27.7526C49.1963 27.8667 48.6949 27.5502 48.5808 27.0457L48.2324 25.5043Z" fill="#4CB01D"/>
<line x1="48.763" y1="28.9875" x2="49.0091" y2="33.6454" stroke="#4CB01D" stroke-width="0.936508"/>
<line x1="50.7793" y1="28.6865" x2="51.8148" y2="33.2344" stroke="#4CB01D" stroke-width="0.936508"/>
<line x1="52.6706" y1="28.0668" x2="54.9696" y2="32.1252" stroke="#4CB01D" stroke-width="0.936508"/>
</svg>
