<svg width="59" height="59" viewBox="0 0 59 59" fill="none" xmlns="http://www.w3.org/2000/svg">
<path fill-rule="evenodd" clip-rule="evenodd" d="M26.282 10.3251C28.7258 10.3251 30.707 12.3062 30.707 14.7501V20.06C30.707 22.5039 32.6881 24.485 35.132 24.485H41.9704C44.4143 24.485 46.3954 26.4661 46.3954 28.91V45.7251C46.3954 48.1689 44.4143 50.1501 41.9704 50.1501H17.0295C14.5856 50.1501 12.6045 48.1689 12.6045 45.7251V14.7501C12.6045 12.3062 14.5856 10.3251 17.0295 10.3251H26.282ZM27.8526 27.3833C26.3763 25.907 26.3441 22.2544 26.3441 22.2544C26.3441 22.2544 26.3119 25.907 24.8356 27.3833C23.3593 28.8596 21.4134 28.8918 21.4134 28.8918C21.4134 28.8918 23.3593 28.924 24.8356 30.4002C26.3119 31.8765 26.3441 35.5291 26.3441 35.5291C26.3441 35.5291 26.3763 31.8765 27.8526 30.4002C29.3288 28.924 31.2747 28.8918 31.2747 28.8918C31.2747 28.8918 29.3288 28.8596 27.8526 27.3833ZM32.5169 32.0478C32.5169 32.0478 32.5345 34.0402 33.3397 34.8455C34.145 35.6508 35.2065 35.6684 35.2065 35.6684C35.2065 35.6684 34.145 35.6859 33.3397 36.4912C32.5345 37.2965 32.5169 39.2889 32.5169 39.2889C32.5169 39.2889 32.4993 37.2965 31.694 36.4912C30.8887 35.6859 29.8273 35.6684 29.8273 35.6684C29.8273 35.6684 30.8887 35.6508 31.694 34.8455C32.4993 34.0402 32.5169 32.0478 32.5169 32.0478ZM17.432 16.3591C17.0987 16.3591 16.8286 16.6292 16.8286 16.9625V20.5829C16.8286 20.9162 17.0987 21.1863 17.432 21.1863C17.7652 21.1863 18.0354 20.9162 18.0354 20.5829V16.9625C18.0354 16.6292 17.7652 16.3591 17.432 16.3591ZM22.8624 15.7557C22.8624 15.4225 23.1325 15.1523 23.4658 15.1523C23.799 15.1523 24.0692 15.4225 24.0692 15.7557V19.3762C24.0692 19.7094 23.799 19.9796 23.4658 19.9796C23.1325 19.9796 22.8624 19.7094 22.8624 19.3762V15.7557ZM16.2247 30.841C15.8915 30.841 15.6213 31.1111 15.6213 31.4444V35.0649C15.6213 35.3981 15.8915 35.6683 16.2247 35.6683C16.558 35.6683 16.8282 35.3981 16.8282 35.0649V31.4444C16.8282 31.1111 16.558 30.841 16.2247 30.841ZM34.9304 44.7194C34.9304 44.3861 35.2006 44.116 35.5338 44.116C35.8671 44.116 36.1372 44.3861 36.1372 44.7194V47.133C36.1372 47.4663 35.8671 47.7364 35.5338 47.7364C35.2006 47.7364 34.9304 47.4663 34.9304 47.133V44.7194ZM18.6383 41.7023C18.305 41.7023 18.0349 41.9724 18.0349 42.3057V44.7193C18.0349 45.0526 18.305 45.3227 18.6383 45.3227C18.9715 45.3227 19.2417 45.0526 19.2417 44.7193V42.3057C19.2417 41.9724 18.9715 41.7023 18.6383 41.7023ZM40.9642 33.858C40.9642 33.5248 41.2344 33.2546 41.5676 33.2546C41.9009 33.2546 42.171 33.5248 42.171 33.858V37.4785C42.171 37.8117 41.9009 38.0819 41.5676 38.0819C41.2344 38.0819 40.9642 37.8117 40.9642 37.4785V33.858ZM25.8793 41.7023C25.546 41.7023 25.2759 41.9724 25.2759 42.3057V45.9262C25.2759 46.2594 25.546 46.5296 25.8793 46.5296C26.2125 46.5296 26.4827 46.2594 26.4827 45.9262V42.3057C26.4827 41.9724 26.2125 41.7023 25.8793 41.7023Z" fill="#333333"/>
</svg>
