<svg width="25" height="24" viewBox="0 0 25 24" fill="none" xmlns="http://www.w3.org/2000/svg">
<path d="M6.26068 14.7166L5.51149 16.9642C5.18579 17.9412 5.02294 18.4298 5.1388 18.7547C5.23961 19.0374 5.4621 19.2599 5.74482 19.3607C6.06971 19.4766 6.55825 19.3137 7.53535 18.988L9.78291 18.2388C10.0502 18.1497 10.1838 18.1052 10.3086 18.0432C10.4194 17.9882 10.5249 17.923 10.6237 17.8485C10.7349 17.7646 10.8345 17.665 11.0337 17.4658L18.4996 9.99994C19.0448 9.45469 19.3174 9.18207 19.4632 8.88797C19.7405 8.32842 19.7405 7.67146 19.4632 7.11191C19.3174 6.81782 19.0448 6.54519 18.4996 5.99994C17.9543 5.45469 17.6817 5.18207 17.3876 5.03633C16.828 4.75905 16.1711 4.75905 15.6115 5.03633C15.3174 5.18207 15.0448 5.4547 14.4996 5.99994L7.03372 13.4658C6.83451 13.665 6.7349 13.7646 6.651 13.8758C6.57648 13.9746 6.51129 14.0801 6.45627 14.1909C6.39432 14.3157 6.34977 14.4493 6.26068 14.7166Z" fill="#B6E2A1"/>
<path d="M5.51149 16.9642L6.223 17.2013H6.223L5.51149 16.9642ZM6.26068 14.7166L5.54917 14.4794H5.54916L6.26068 14.7166ZM7.03372 13.4658L7.56405 13.9961L7.56405 13.9961L7.03372 13.4658ZM14.4996 5.99994L13.9692 5.46961V5.46961L14.4996 5.99994ZM18.4996 9.99994L19.0299 10.5303L19.0299 10.5303L18.4996 9.99994ZM11.0337 17.4658L10.5034 16.9355H10.5034L11.0337 17.4658ZM9.78291 18.2388L10.0201 18.9503H10.0201L9.78291 18.2388ZM7.53535 18.988L7.77252 19.6995H7.77252L7.53535 18.988ZM10.6237 17.8485L10.172 17.2498L10.172 17.2498L10.6237 17.8485ZM10.3086 18.0432L9.97508 17.3715L10.3086 18.0432ZM19.4632 7.11191L18.7912 7.44492V7.44492L19.4632 7.11191ZM19.4632 8.88797L18.7912 8.55496V8.55496L19.4632 8.88797ZM15.6115 5.03633L15.9445 5.70835V5.70835L15.6115 5.03633ZM17.3876 5.03633L17.0546 5.70835V5.70835L17.3876 5.03633ZM6.45627 14.1909L7.12803 14.5244L7.12803 14.5244L6.45627 14.1909ZM6.651 13.8758L6.05226 13.4241H6.05226L6.651 13.8758ZM5.1388 18.7547L4.43237 19.0066L5.1388 18.7547ZM5.74482 19.3607L5.49291 20.0671H5.49291L5.74482 19.3607ZM14.0299 6.46965C13.737 6.17675 13.2621 6.17675 12.9692 6.46965C12.6763 6.76254 12.6763 7.23741 12.9692 7.53031L14.0299 6.46965ZM16.9692 11.5303C17.2621 11.8232 17.737 11.8232 18.0299 11.5303C18.3228 11.2374 18.3228 10.7625 18.0299 10.4696L16.9692 11.5303ZM12.4996 19.2499C12.0853 19.2499 11.7496 19.5857 11.7496 19.9999C11.7496 20.4142 12.0853 20.7499 12.4996 20.7499V19.2499ZM19.4996 20.7499C19.9138 20.7499 20.2496 20.4142 20.2496 19.9999C20.2496 19.5857 19.9138 19.2499 19.4996 19.2499V20.7499ZM6.223 17.2013L6.97219 14.9538L5.54916 14.4794L4.79998 16.727L6.223 17.2013ZM7.56405 13.9961L15.0299 6.53027L13.9692 5.46961L6.50339 12.9355L7.56405 13.9961ZM17.9692 9.46961L10.5034 16.9355L11.5641 17.9961L19.0299 10.5303L17.9692 9.46961ZM9.54574 17.5273L7.29818 18.2765L7.77252 19.6995L10.0201 18.9503L9.54574 17.5273ZM10.5034 16.9355C10.29 17.1488 10.232 17.2045 10.172 17.2498L11.0754 18.4472C11.2378 18.3247 11.379 18.1812 11.5641 17.9961L10.5034 16.9355ZM10.0201 18.9503C10.2684 18.8676 10.4599 18.8055 10.6421 18.715L9.97508 17.3715C9.90779 17.4049 9.83201 17.4319 9.54574 17.5273L10.0201 18.9503ZM10.172 17.2498C10.1103 17.2963 10.0443 17.3371 9.97508 17.3715L10.6421 18.715C10.7945 18.6393 10.9395 18.5497 11.0754 18.4472L10.172 17.2498ZM17.9692 6.53027C18.5573 7.11834 18.7138 7.28891 18.7912 7.44492L20.1352 6.7789C19.921 6.34672 19.5323 5.97204 19.0299 5.46961L17.9692 6.53027ZM19.0299 10.5303C19.5323 10.0278 19.921 9.65316 20.1352 9.22098L18.7912 8.55496C18.7138 8.71097 18.5573 8.88154 17.9692 9.46961L19.0299 10.5303ZM18.7912 7.44492C18.9645 7.79464 18.9645 8.20524 18.7912 8.55496L20.1352 9.22098C20.5164 8.4516 20.5164 7.54829 20.1352 6.7789L18.7912 7.44492ZM15.0299 6.53027C15.618 5.94221 15.7885 5.78565 15.9445 5.70835L15.2785 4.36432C14.8463 4.57848 14.4717 4.96718 13.9692 5.46961L15.0299 6.53027ZM19.0299 5.46961C18.5275 4.96718 18.1528 4.57848 17.7206 4.36432L17.0546 5.70835C17.2106 5.78565 17.3812 5.9422 17.9692 6.53027L19.0299 5.46961ZM15.9445 5.70835C16.2943 5.53504 16.7049 5.53504 17.0546 5.70835L17.7206 4.36432C16.9512 3.98305 16.0479 3.98305 15.2785 4.36432L15.9445 5.70835ZM6.97219 14.9538C7.06761 14.6675 7.09462 14.5917 7.12803 14.5244L5.78451 13.8574C5.69401 14.0396 5.63193 14.2311 5.54917 14.4794L6.97219 14.9538ZM6.50339 12.9355C6.31833 13.1205 6.17482 13.2617 6.05226 13.4241L7.24973 14.3275C7.29497 14.2675 7.35069 14.2095 7.56405 13.9961L6.50339 12.9355ZM7.12803 14.5244C7.16242 14.4552 7.20316 14.3892 7.24973 14.3275L6.05226 13.4241C5.9498 13.56 5.86017 13.705 5.78451 13.8574L7.12803 14.5244ZM4.79998 16.727C4.64186 17.2013 4.50609 17.6063 4.42945 17.9324C4.35542 18.2475 4.29836 18.6308 4.43237 19.0066L5.84522 18.5028C5.86338 18.5537 5.82981 18.5303 5.88967 18.2756C5.94692 18.0319 6.05543 17.7041 6.223 17.2013L4.79998 16.727ZM7.29818 18.2765C6.79545 18.4441 6.46756 18.5526 6.22394 18.6098C5.96919 18.6697 5.94582 18.6361 5.99673 18.6543L5.49291 20.0671C5.86871 20.2011 6.25205 20.1441 6.56707 20.0701C6.89322 19.9934 7.29815 19.8576 7.77252 19.6995L7.29818 18.2765ZM4.43237 19.0066C4.6088 19.5014 4.99815 19.8907 5.49291 20.0671L5.99673 18.6543C5.92605 18.6291 5.87043 18.5735 5.84522 18.5028L4.43237 19.0066ZM12.9692 7.53031L16.9692 11.5303L18.0299 10.4696L14.0299 6.46965L12.9692 7.53031ZM12.4996 20.7499H19.4996V19.2499H12.4996V20.7499Z" fill="#4CB01D"/>
</svg>
