<svg width="18" height="18" viewBox="0 0 18 18" fill="none" xmlns="http://www.w3.org/2000/svg">
<path d="M8.6212 2.03542C8.77612 1.72151 9.22374 1.72151 9.37867 2.03542L11.3842 6.09901C11.4457 6.22367 11.5646 6.31007 11.7022 6.33006L16.1866 6.98168C16.533 7.03202 16.6714 7.45774 16.4207 7.70208L13.1757 10.8651C13.0762 10.9622 13.0308 11.102 13.0542 11.239L13.8203 15.7053C13.8795 16.0503 13.5173 16.3134 13.2075 16.1505L9.19647 14.0418C9.07343 13.9771 8.92644 13.9771 8.8034 14.0418L4.79239 16.1505C4.48254 16.3134 4.12041 16.0503 4.17958 15.7053L4.94562 11.239C4.96912 11.102 4.92369 10.9622 4.82415 10.8651L1.57918 7.70208C1.32851 7.45774 1.46683 7.03202 1.81325 6.98168L6.29769 6.33006C6.43525 6.31007 6.55417 6.22367 6.61569 6.09901L8.6212 2.03542Z" fill="#FFCF2E"/>
</svg>
