<svg width="114" height="123" viewBox="0 0 114 123" fill="none" xmlns="http://www.w3.org/2000/svg">
<path d="M113.999 32H101.641L90.584 53.4692L96.7728 65.5912H105.406L111.594 53.7154H102.833L113.999 32Z" fill="#7CDD30"/>
<path d="M24.056 32L17.8672 43.8758H34.9061L31.6836 50.0978H44.0513L53.4133 32H24.056Z" fill="#7CDD30"/>
<path d="M31.8112 59.6532C34.1763 59.6532 36.4232 60.0889 38.4927 60.8749L42.2178 53.7059H25.3859L28.5591 47.4839H16.2012L13.028 53.7059H6.17894L0 65.5816H18.1722C21.5031 61.945 26.3714 59.6438 31.8112 59.6438V59.6532Z" fill="#7CDD30"/>
<path d="M69.8803 32H57.5224L41.873 62.5891C43.2034 63.4414 44.3959 64.4548 45.4503 65.6007H63.0017L69.1806 53.7249H58.7543L69.8803 32.0095V32Z" fill="#7CDD30"/>
<path d="M31.8106 63.1951C23.8183 63.1951 17.3438 69.4171 17.3438 77.0975C17.3438 84.7779 23.8183 90.9999 31.8106 90.9999C39.8028 90.9999 46.2774 84.7779 46.2774 77.0975C46.2774 69.4171 39.8028 63.1951 31.8106 63.1951ZM31.8106 79.7586C30.2831 79.7586 29.0414 78.5654 29.0414 77.0975C29.0414 75.6296 30.2831 74.4363 31.8106 74.4363C33.338 74.4363 34.5798 75.6296 34.5798 77.0975C34.5798 78.5654 33.338 79.7586 31.8106 79.7586Z" fill="#7CDD30"/>
<path d="M52.7923 84.8918C52.1813 84.8918 51.7674 84.7781 51.5309 84.5508C51.2944 84.3235 51.2057 84.011 51.2747 83.6038C51.3437 83.1966 51.5112 82.7231 51.797 82.1738L53.3245 79.238C53.6201 78.6792 53.9453 78.1963 54.3001 77.789C54.6549 77.3818 55.0688 77.0693 55.532 76.8515C55.9951 76.6337 56.5371 76.52 57.1481 76.52C57.7394 76.52 58.1533 76.6242 58.38 76.8231C58.6066 77.0219 58.7052 77.2966 58.6559 77.6565C58.6066 78.0163 58.4687 78.4236 58.2223 78.8876L57.8577 79.5884H56.1232L56.547 78.774C56.6258 78.613 56.7047 78.4614 56.7638 78.3099C56.8229 78.1584 56.8426 78.0447 56.8131 77.9406C56.7835 77.8459 56.6751 77.789 56.4879 77.789C56.3006 77.789 56.143 77.8364 55.9951 77.9406C55.8572 78.0447 55.729 78.1678 55.6305 78.3194C55.532 78.4709 55.4334 78.6319 55.3447 78.7929L53.3541 82.6189C53.2555 82.7988 53.1865 82.9693 53.1372 83.1208C53.088 83.2724 53.088 83.3955 53.1274 83.4807C53.1668 83.5754 53.2752 83.6133 53.4526 83.6133C53.6398 83.6133 53.7975 83.5659 53.9256 83.4712C54.0537 83.3765 54.172 83.2439 54.2705 83.0924C54.3691 82.9409 54.4578 82.7799 54.5465 82.6189L54.9899 81.7666H56.7244L56.3598 82.4768C56.1232 82.9409 55.8375 83.3481 55.5122 83.7175C55.187 84.0868 54.8027 84.3709 54.3592 84.5792C53.9158 84.7876 53.3935 84.8918 52.7923 84.8918Z" fill="#111111"/>
<path d="M56.5293 84.7876L62.2746 76.6526H64.2949L61.5552 84.8065H59.9193L60.55 83.0829H59.3773L58.2046 84.7971H56.5293V84.7876ZM60.0967 81.9938H60.9442L62.1662 78.8213L60.0869 81.9938H60.0967Z" fill="#111111"/>
<path d="M63.1582 84.7971L67.3859 76.6526H69.5934C70.1354 76.6526 70.569 76.7189 70.904 76.842C71.2391 76.9651 71.4362 77.1829 71.4953 77.4954C71.5545 77.808 71.4362 78.2531 71.1406 78.8213C70.9632 79.1528 70.7858 79.4558 70.5986 79.7115C70.4113 79.9767 70.1945 80.204 69.958 80.3934C69.7215 80.5828 69.4357 80.7438 69.1006 80.8669L68.1546 84.8065H66.3216L67.3366 81.151H66.834L64.9419 84.7971H63.1681H63.1582ZM67.3662 80.1187H67.8589C68.1053 80.1187 68.332 80.0714 68.5093 79.9861C68.6966 79.9009 68.8641 79.7683 69.0021 79.5979C69.1499 79.4274 69.278 79.219 69.4061 78.9823C69.5835 78.6319 69.6623 78.3667 69.6426 78.1678C69.6229 77.969 69.4357 77.8743 69.1006 77.8743H68.5291L67.3563 80.1282L67.3662 80.1187Z" fill="#111111"/>
<path d="M73.8516 84.8254L77.1135 76.6809H78.6213L76.6306 81.4255L79.6954 76.6904H80.8682L79.0549 81.3971L81.9916 76.6809H83.4797L78.2862 84.8254H76.739L78.6114 79.9008L75.4185 84.8159H73.8516V84.8254Z" fill="#111111"/>
<path d="M80.5137 84.8445L86.259 76.7095H88.2792L85.5396 84.8634H83.9037L84.5344 83.1398H83.3617L82.189 84.8539H80.5137V84.8445ZM84.0712 82.0507H84.9188L86.1408 78.8782L84.0614 82.0507H84.0712Z" fill="#111111"/>
<path d="M89.2072 84.9865C88.7046 84.9865 88.3301 84.8918 88.0936 84.7119C87.8473 84.532 87.7389 84.2479 87.7684 83.869C87.7881 83.4902 87.9557 82.9978 88.2415 82.3917L89.8773 82.1644C89.7 82.5148 89.5916 82.7894 89.5324 83.0073C89.4733 83.2251 89.4733 83.3766 89.5324 83.4713C89.5817 83.566 89.6803 83.6134 89.8281 83.6134C90.0153 83.6134 90.1631 83.5471 90.2913 83.4239C90.4095 83.2914 90.5081 83.1588 90.5869 83.0167C90.7643 82.6853 90.8333 82.4012 90.7938 82.1644C90.7544 81.9371 90.6657 81.7004 90.5179 81.4636L90.1434 80.848C89.9759 80.5829 89.8774 80.2893 89.8379 79.9578C89.7985 79.6263 89.9168 79.2191 90.1631 78.7267C90.5179 78.0353 91.0008 77.505 91.5921 77.1451C92.1834 76.7853 92.8239 76.5958 93.5236 76.6053C93.9474 76.6053 94.2627 76.6811 94.4401 76.8326C94.6274 76.9841 94.7259 77.1735 94.7358 77.4103C94.7456 77.6471 94.7062 77.9028 94.6175 78.1679C94.5288 78.4331 94.4303 78.6888 94.312 78.9255L92.686 79.115C92.8042 78.8782 92.9028 78.6604 92.9718 78.4899C93.0407 78.31 93.0604 78.1774 93.0407 78.0732C93.021 77.9785 92.9323 77.9312 92.7845 77.9312C92.617 77.9312 92.4593 77.9975 92.3115 78.1395C92.1637 78.2816 92.0553 78.4236 91.9764 78.5657C91.8187 78.8687 91.7596 79.115 91.8089 79.3044C91.8483 79.4938 91.937 79.6926 92.0553 79.901L92.41 80.4976C92.6071 80.8007 92.7155 81.1416 92.7648 81.5204C92.8042 81.8992 92.686 82.3727 92.3903 82.941C92.1932 83.3198 91.9271 83.6702 91.5921 83.9827C91.257 84.2952 90.8924 84.5414 90.4785 84.7214C90.0744 84.9013 89.6507 84.9865 89.2269 84.9865H89.2072Z" fill="#111111"/>
<path d="M93.0488 84.8727L97.2765 76.7283H99.0504L97.3357 80.0239H98.5774L100.292 76.7283H102.076L97.8481 84.8727H96.0644L97.9171 81.3119H96.6852L94.8325 84.8633H93.0587L93.0488 84.8727Z" fill="#111111"/>
<path d="M94.1341 69.2088L86.2109 53.7344L94.1242 38.2409L89.7192 38.222L92.9909 32H80.6331L77.3613 38.222H71.0345L64.8556 50.0978H75.7057L65.9396 69.2088H48.0039C48.2404 69.6634 48.4671 70.1275 48.6642 70.6104H77.5781L80.0122 65.8374L82.4463 70.6104H103.674L104.403 69.2088H94.1242H94.1341Z" fill="#7CDD30"/>
</svg>
