<svg width="15" height="20" viewBox="0 0 15 20" fill="none" xmlns="http://www.w3.org/2000/svg">
<path d="M0.921963 15.0896L0.3266 14.6335L0.326599 14.6335L0.921963 15.0896ZM1.89111 12.3649L1.14111 12.3556V12.3649H1.89111ZM1.91145 10.7175L2.66145 10.7267V10.7175H1.91145ZM14.0845 15.1028L14.6889 14.6588L14.6889 14.6588L14.0845 15.1028ZM13.1518 12.3649L12.4018 12.3551V12.3649H13.1518ZM13.1722 10.7991L13.9222 10.8089V10.7991H13.1722ZM1.51733 15.5457C2.07751 14.8145 2.64111 13.7141 2.64111 12.3649H1.14111C1.14111 13.2895 0.75273 14.0772 0.3266 14.6335L1.51733 15.5457ZM2.64105 12.3741L2.6614 10.7267L1.16151 10.7082L1.14117 12.3556L2.64105 12.3741ZM14.6889 14.6588C14.281 14.1035 13.9018 13.3064 13.9018 12.3649H12.4018C12.4018 13.7127 12.9418 14.8142 13.4801 15.5469L14.6889 14.6588ZM13.9018 12.3746L13.9221 10.8089L12.4222 10.7894L12.4019 12.3551L13.9018 12.3746ZM13.9222 10.7991C13.9222 7.27309 11.0411 4.42552 7.50065 4.42552V5.92552C10.2247 5.92552 12.4222 8.11349 12.4222 10.7991H13.9222ZM13.7451 16.6163C14.307 16.6163 14.6648 16.2246 14.8107 15.8847C14.9556 15.5472 14.9851 15.0619 14.6889 14.6588L13.4801 15.5469C13.3882 15.4218 13.4215 15.3182 13.4324 15.293C13.4443 15.2653 13.5302 15.1163 13.7451 15.1163V16.6163ZM2.66145 10.7175C2.66145 8.07694 4.82202 5.92552 7.50065 5.92552V4.42552C4.00562 4.42552 1.16145 7.23654 1.16145 10.7175H2.66145ZM1.25701 15.1163C1.477 15.1163 1.5608 15.2706 1.57042 15.2937C1.5792 15.3148 1.614 15.4195 1.51733 15.5457L0.326599 14.6335C0.0173964 15.0371 0.044046 15.5301 0.185654 15.8702C0.328093 16.2124 0.685678 16.6163 1.25701 16.6163V15.1163ZM13.7451 15.1163H1.25701V16.6163H13.7451V15.1163ZM9.41732 15.8663C9.41732 16.7608 8.61519 17.5834 7.50065 17.5834V19.0834C9.33163 19.0834 10.9173 17.6969 10.9173 15.8663H9.41732ZM7.50065 17.5834C6.38611 17.5834 5.58398 16.7608 5.58398 15.8663H4.08398C4.08398 17.6969 5.66967 19.0834 7.50065 19.0834V17.5834ZM8.52843 3.42113C8.52843 3.96651 8.07767 4.42552 7.50065 4.42552V5.92552C8.88731 5.92552 10.0284 4.8136 10.0284 3.42113H8.52843ZM7.50065 4.42552C6.92363 4.42552 6.47287 3.96651 6.47287 3.42113H4.97287C4.97287 4.8136 6.11399 5.92552 7.50065 5.92552V4.42552ZM6.47287 3.42113C6.47287 2.87576 6.92363 2.41675 7.50065 2.41675V0.916748C6.11399 0.916748 4.97287 2.02867 4.97287 3.42113H6.47287ZM7.50065 2.41675C8.07767 2.41675 8.52843 2.87576 8.52843 3.42113H10.0284C10.0284 2.02867 8.88731 0.916748 7.50065 0.916748V2.41675Z" fill="#A4F65F"/>
</svg>
