<svg width="72" height="72" viewBox="0 0 72 72" fill="none" xmlns="http://www.w3.org/2000/svg">
<g clip-path="url(#clip0_710_12911)">
<rect width="72" height="72" rx="36" fill="#CFE9D6"/>
<path d="M56.6383 67.145C56.4645 67.2692 56.2658 67.3934 56.0919 67.5175C55.8932 67.6417 55.7194 67.7659 55.5207 67.8653C55.3468 67.9646 55.1978 68.064 55.024 68.1633C54.9991 68.1881 54.9743 68.1881 54.9494 68.213C54.3782 68.5607 53.7821 68.8836 53.186 69.1816C53.0122 69.2809 52.8135 69.3803 52.6396 69.4548C52.6396 69.4548 52.6148 69.4796 52.59 69.4796C52.3913 69.579 52.1926 69.6783 51.9939 69.7777C51.5965 69.9764 51.1743 70.1502 50.7769 70.3241C50.5782 70.4234 50.3547 70.4979 50.156 70.5725C49.9573 70.647 49.7338 70.7463 49.5351 70.8208C49.3364 70.8953 49.1128 70.9947 48.9142 71.0692C48.9142 71.0692 48.9141 71.0692 48.8893 71.0692C48.6906 71.1437 48.4671 71.2182 48.2684 71.2927C47.8213 71.4417 47.3494 71.5907 46.9024 71.7398C46.7534 71.7894 46.5795 71.8391 46.4305 71.8888C45.9586 72.0378 45.4867 72.162 45.0148 72.2613C44.8409 72.311 44.6671 72.3358 44.4684 72.3855C44.0213 72.4849 43.5494 72.5842 43.1024 72.6836C43.003 72.7084 42.9285 72.7084 42.8292 72.7332C42.6802 72.7581 42.5063 72.7829 42.3573 72.8077C42.1338 72.8326 41.9351 72.8823 41.7115 72.9071C41.6122 72.9319 41.5128 72.9319 41.4135 72.9568C41.2893 72.9816 41.1403 73.0064 40.9913 73.0064C40.5939 73.0561 40.1717 73.1058 39.7743 73.1555C39.6501 73.1803 39.5011 73.1803 39.3769 73.2051H39.3521C39.1782 73.23 39.0043 73.23 38.8305 73.2548C38.6566 73.2796 38.4828 73.2796 38.3089 73.2796C38.2096 73.2796 38.0854 73.3045 37.986 73.3045C37.7874 73.3045 37.6135 73.3293 37.4396 73.3293C37.1913 73.3293 36.9677 73.3541 36.7194 73.3541C36.471 73.3541 36.2475 73.3541 35.9991 73.3541C35.8253 73.3541 35.6514 73.3541 35.4776 73.3541C24.9965 73.2051 15.5834 68.7594 8.85272 61.7058C8.85272 61.7058 8.85272 61.6809 8.82788 61.6809C8.08278 61.0104 8.72853 57.4339 11.7338 55.1738C15.5089 52.3175 24.5494 50.5293 24.5494 50.5293C24.5494 50.5293 28.0514 49.9581 41.0409 52.6653C48.6409 54.2548 54.4279 56.5646 57.6566 62.8234C58.3272 64.1149 58.9978 66.1019 56.6383 67.145Z" fill="white"/>
<path d="M41.1153 52.3921C45.8839 53.3607 50.9754 54.4038 54.8996 57.5581C56.2159 58.6261 57.0852 60.1908 57.8055 61.7058C58.1532 62.4509 58.5009 63.2208 58.7741 64.0404C58.9231 64.5869 59.1466 65.2078 59.0225 65.8535C58.9976 66.0274 58.8486 66.2509 58.7244 66.3751C58.1532 66.9463 57.5323 67.294 56.9113 67.7411C53.2604 70.2744 49.063 72.0627 44.7166 73.0065C35.0303 75.1176 24.5493 73.4784 16.0303 68.3869C13.1989 66.6731 10.5911 64.5869 8.35579 62.128C8.10742 61.83 8.10742 61.3333 8.10742 61.0104C8.13226 60.2653 8.33095 59.545 8.57932 58.8744C9.1754 57.3346 9.94533 55.7947 11.2617 54.7267C12.2055 54.081 13.2238 53.5346 14.2669 53.0875C17.5453 51.6967 20.9976 50.728 24.5493 50.3306C24.8473 50.3058 24.897 50.728 24.5989 50.7777C21.1963 51.4731 17.8185 52.5163 14.6643 53.932C13.5218 54.5032 12.3048 54.9999 11.3859 55.894C10.5166 56.8378 9.89566 58.0052 9.39893 59.1973C9.07605 59.9176 8.85252 61.0601 8.95187 61.6313C10.5166 63.494 12.3545 65.1333 14.3414 66.5489C25.2198 74.1489 41.7362 74.6457 53.31 68.3123C54.3532 67.7411 55.3715 67.0954 56.3401 66.4248C56.812 66.1019 57.3087 65.8287 57.6813 65.4561C57.7061 65.4313 57.6813 65.4561 57.6813 65.481C57.6813 65.5058 57.6564 65.5306 57.6564 65.5306C57.6813 65.2326 57.5819 64.8352 57.4577 64.4378C57.0107 62.9973 56.2904 61.4823 55.5205 60.1659C54.3035 58.2038 52.2421 56.962 50.1558 55.9686C48.7153 55.298 47.2002 54.7764 45.6604 54.2797C44.1205 53.7829 42.5558 53.3607 40.9911 52.9882C40.5937 52.8888 40.7179 52.3176 41.1153 52.3921Z" fill="black"/>
<path d="M20.1289 50.3059C20.1289 50.3059 23.7551 48.8653 24.4256 48.8157L24.4753 49.3869C24.4753 49.3869 21.5943 50.6287 21.4204 50.8274C21.2714 51.0013 20.1289 50.3059 20.1289 50.3059Z" fill="#7E5D6D"/>
<path d="M64.886 82.5438H2.07422C2.07422 82.5438 3.71343 70.8955 7.51343 62.6994C10.3696 56.4902 15.933 52.5164 20.95 50.7281C22.3657 50.2314 23.4585 49.685 24.4768 49.4118C24.4768 49.4615 29.0468 48.6667 32.7474 49.0889C38.5343 49.7347 44.4455 51.6968 44.52 51.6719C47.7239 52.5164 51.6481 54.9007 57.3357 59.6693C63.7435 65.034 64.886 82.5438 64.886 82.5438Z" fill="white"/>
<mask id="mask0_710_12911" style="mask-type:alpha" maskUnits="userSpaceOnUse" x="2" y="48" width="63" height="35">
<path d="M64.886 82.5438H2.07422C2.07422 82.5438 3.71343 70.8955 7.51343 62.6994C10.3696 56.4902 15.933 52.5164 20.95 50.7281C22.3657 50.2314 23.4585 49.685 24.4768 49.4118C24.4768 49.4615 29.0468 48.6667 32.7474 49.0889C38.5343 49.7347 44.4455 51.6968 44.52 51.6719C47.7239 52.5164 51.6481 54.9007 57.3356 59.6693C63.7435 65.034 64.886 82.5438 64.886 82.5438Z" fill="white"/>
</mask>
<g mask="url(#mask0_710_12911)">
<path d="M14.9902 48.8403C16.3562 48.89 17.0517 48.9148 18.4177 48.89C19.6347 49.6103 20.2308 49.958 21.4726 50.6286C22.7393 50.5541 23.385 50.5044 24.6517 50.3554C25.9183 50.9515 26.5393 51.2495 27.8059 51.8207C29.0974 51.622 29.7432 51.4979 31.0098 51.2495C32.3013 51.7462 32.9719 51.9698 34.2634 52.392C35.5549 52.0691 36.2007 51.8704 37.4922 51.4979C38.8334 51.8456 39.504 52.0194 40.8451 52.3175C42.1366 51.8456 42.7824 51.622 44.0739 51.1005C45.4399 51.324 46.1353 51.4233 47.5013 51.5972C48.768 51.0011 49.4138 50.7031 50.6804 50.0573C52.0713 50.1318 52.7667 50.1567 54.1576 50.1815C55.3994 49.4364 56.0203 49.0639 57.2621 48.2939C58.8268 48.1698 59.5968 48.0952 61.1615 47.9214C61.0373 48.5175 60.9876 48.8155 60.8883 49.4116C59.5968 49.5606 58.9262 49.6351 57.6347 49.7345C56.368 50.5292 55.7471 50.9266 54.4556 51.6717C53.0399 51.6717 52.3445 51.6469 50.9288 51.5724C49.6373 52.2181 48.9915 52.541 47.7 53.1371C46.3092 52.9632 45.6138 52.8639 44.2229 52.6652C42.9314 53.1867 42.2608 53.4351 40.9693 53.8822C39.6033 53.5841 38.9327 53.4103 37.5915 53.0626C36.3 53.4351 35.6294 53.6338 34.3379 53.9567C33.0216 53.5096 32.351 53.2861 31.0347 52.7894C29.7432 53.0377 29.0974 53.1619 27.7811 53.3606C26.4896 52.7894 25.8687 52.5162 24.5772 51.8952C23.2857 52.0194 22.6399 52.0691 21.3732 52.1436C20.1314 51.473 19.5105 51.1253 18.2935 50.3802C17.151 50.3802 16.5798 50.3802 15.4373 50.3305C15.2634 49.7593 15.1641 49.4613 14.9902 48.8403Z" fill="black"/>
<path d="M14.6426 55.149C16.0086 55.1738 16.6792 55.1738 18.07 55.1241C19.3119 55.8196 19.9328 56.1424 21.1746 56.7882C22.4413 56.6888 23.0622 56.6143 24.3289 56.4405C25.5955 57.0117 26.2413 57.2849 27.5328 57.8065C28.7994 57.583 29.4204 57.4339 30.7119 57.1607C32.0282 57.6078 32.6988 57.8313 34.0151 58.2287C35.2818 57.8562 35.9275 57.6823 37.1942 57.2601C38.5354 57.583 39.2308 57.732 40.572 58.0052C41.8387 57.5084 42.4596 57.2601 43.7262 56.7137C45.1171 56.9124 45.7877 56.9869 47.1785 57.1111C48.4204 56.4901 49.0413 56.1673 50.2831 55.4967C51.674 55.5464 52.3942 55.5464 53.7851 55.5215C55.0021 54.7764 55.5981 54.379 56.8151 53.5843C58.3798 53.4352 59.1746 53.3607 60.7393 53.1372C60.64 53.7333 60.6151 54.0313 60.5158 54.6026C59.1994 54.7764 58.5537 54.8509 57.2622 54.9751C56.0204 55.7947 55.4243 56.1921 54.1824 56.962C52.7668 56.9869 52.0465 56.9869 50.6308 56.9372C49.3641 57.6078 48.7432 57.9307 47.4766 58.5764C46.0857 58.4522 45.3655 58.3777 43.9746 58.179C42.7079 58.7254 42.0622 58.9738 40.7707 59.4705C39.4047 59.1973 38.7092 59.0483 37.3432 58.7254C36.0517 59.1477 35.4308 59.3215 34.1393 59.6941C32.7981 59.2967 32.1275 59.0732 30.8112 58.6261C29.5197 58.8993 28.8988 59.0483 27.6073 59.2718C26.3158 58.7503 25.6452 58.4771 24.3537 57.881C23.087 58.03 22.4413 58.1045 21.1746 58.2287C19.9079 57.583 19.287 57.2352 18.0452 56.5398C16.9027 56.5647 16.3315 56.5895 15.2138 56.5647C14.9655 56.0183 14.8661 55.7202 14.6426 55.149Z" fill="black"/>
<path d="M14.2949 61.3582C15.6361 61.3334 16.3315 61.3085 17.6975 61.2589C18.9394 61.9294 19.5851 62.2523 20.8518 62.8484C22.0936 62.6994 22.7145 62.6249 23.9564 62.4262C25.2479 62.9726 25.8936 63.221 27.21 63.7177C28.4518 63.4445 29.0727 63.3203 30.3394 62.9974C31.6805 63.4196 32.3511 63.6183 33.6923 63.9909C34.9341 63.5935 35.5551 63.3948 36.7969 62.9726C38.1629 63.2706 38.8583 63.3948 40.2243 63.6432C41.4662 63.1216 42.0871 62.8732 43.3041 62.302C44.6949 62.451 45.3903 62.5255 46.7812 62.6249C47.9982 61.9791 48.6191 61.6562 49.8113 60.9608C51.2269 60.9608 51.9224 60.9608 53.3381 60.9112C54.5302 60.1412 55.1263 59.7438 56.2936 58.9491C57.8583 58.7752 58.6531 58.6759 60.2178 58.4275C60.1433 58.9987 60.1184 59.2968 60.0688 59.8928C58.7524 60.0915 58.1067 60.1909 56.7903 60.3399C55.5982 61.1595 54.9773 61.5817 53.7851 62.3517C52.3446 62.4013 51.6243 62.4262 50.2086 62.4013C48.9668 63.0968 48.3707 63.4196 47.1289 64.0902C45.7132 63.9909 45.0178 63.9412 43.6021 63.7674C42.3603 64.3386 41.7394 64.6118 40.4727 65.1334C39.0818 64.9098 38.3864 64.7608 37.0204 64.4628C35.7537 64.9098 35.1328 65.1085 33.8662 65.5059C32.5001 65.1334 31.8296 64.9347 30.4884 64.5125C29.2217 64.8353 28.6008 64.9844 27.3341 65.2327C26.0178 64.736 25.3472 64.4628 24.0557 63.9164C22.789 64.1151 22.1681 64.1896 20.9015 64.3386C19.61 63.7177 18.989 63.3948 17.7224 62.7242C16.6047 62.7739 16.0335 62.7987 14.9158 62.8236C14.6426 62.2523 14.5433 61.9543 14.2949 61.3582Z" fill="black"/>
<path d="M13.9219 67.5423C15.2631 67.4927 15.9336 67.443 17.2748 67.3437C18.5415 67.9894 19.1872 68.2874 20.4787 68.8587C21.6957 68.6848 22.3166 68.5855 23.5585 68.3619C24.8748 68.8835 25.5454 69.1319 26.8617 69.5789C28.0787 69.2809 28.6997 69.1319 29.9415 68.7842C31.2827 69.1816 31.9781 69.3554 33.3193 69.6783C34.5363 69.2561 35.1572 69.0325 36.3742 68.5855C37.765 68.8338 38.4356 68.958 39.8264 69.1567C41.0434 68.6103 41.6395 68.3371 42.8565 67.7659C44.2722 67.8901 44.9676 67.9397 46.3833 68.0142C47.5755 67.3685 48.1715 67.0208 49.3637 66.3254C50.7794 66.3005 51.4996 66.2757 52.9153 66.2012C54.0827 65.4312 54.6539 65.0338 55.7964 64.2142C57.3859 64.0155 58.1807 63.8914 59.7454 63.6182C59.6957 64.1894 59.6957 64.4874 59.6461 65.0587C58.3297 65.2822 57.684 65.3816 56.3676 65.5554C55.2003 66.3999 54.6042 66.7972 53.4369 67.592C51.9964 67.6665 51.2761 67.6914 49.8356 67.7162C48.6434 68.4365 48.0225 68.7842 46.8304 69.4299C45.4147 69.3554 44.6944 69.3306 43.2787 69.2064C42.0617 69.8025 41.4408 70.0757 40.2238 70.6221C38.8081 70.4234 38.1127 70.2992 36.7219 70.0508C35.48 70.5227 34.8591 70.7463 33.6173 71.1685C32.2513 70.8456 31.5559 70.6469 30.1898 70.2744C28.948 70.6221 28.3271 70.7711 27.0853 71.0691C25.7441 70.5972 25.0735 70.3737 23.7323 69.8521C22.4905 70.0757 21.8696 70.175 20.6278 70.3489C19.3114 69.7528 18.6657 69.4548 17.399 68.809C16.2814 68.9084 15.7349 68.9332 14.6173 68.9829C14.3441 68.4116 14.1951 68.1136 13.9219 67.5423Z" fill="black"/>
<path d="M13.5742 73.6522C14.8906 73.5529 15.5611 73.5032 16.9023 73.3542C18.1938 73.9503 18.8396 74.2483 20.1559 74.7947C21.3729 74.596 21.969 74.4718 23.186 74.2235C24.5272 74.6954 25.1977 74.9437 26.5389 75.3659C27.7559 75.0431 28.352 74.8692 29.5442 74.4967C30.9102 74.8444 31.6056 75.0182 32.9716 75.3163C34.1638 74.8692 34.7598 74.6457 35.9768 74.149C37.3677 74.3725 38.0631 74.4718 39.4788 74.6457C40.671 74.0744 41.2422 73.8012 42.4343 73.2052C43.85 73.3045 44.5703 73.3293 45.986 73.379C47.1533 72.7084 47.7245 72.3607 48.8919 71.6405C50.3324 71.5908 51.0278 71.5659 52.4683 71.4666C53.586 70.6718 54.1572 70.2744 55.2749 69.4548C56.8644 69.2313 57.6592 69.1071 59.2487 68.8091C59.2239 69.3803 59.2239 69.6535 59.1991 70.2248C57.8827 70.4731 57.237 70.5725 55.9206 70.7712C54.7781 71.6156 54.2069 72.0378 53.0644 72.8326C51.6239 72.9568 50.8788 72.9816 49.4383 73.0313C48.271 73.7516 47.6749 74.1241 46.5076 74.7947C45.067 74.7699 44.3468 74.745 42.9062 74.6457C41.7141 75.2666 41.118 75.5398 39.9259 76.111C38.5102 75.9372 37.7899 75.8378 36.3742 75.6143C35.1572 76.111 34.5611 76.3346 33.3442 76.7816C31.9533 76.4836 31.2579 76.3097 29.867 75.962C28.65 76.3346 28.0291 76.5084 26.8121 76.8313C25.4461 76.4091 24.7755 76.1855 23.4095 75.6888C22.1925 75.9372 21.5716 76.0614 20.3546 76.2601C19.0383 75.7137 18.3677 75.4156 17.0513 74.8195C15.9585 74.9437 15.4121 74.9934 14.3193 75.0679C14.0213 74.5215 13.8723 74.2235 13.5742 73.6522Z" fill="black"/>
</g>
<path d="M65.3573 82.9661C46.705 83.0157 20.4776 83.2144 2.0985 83.1647C1.72595 83.1647 1.40307 82.817 1.47758 82.4445C2.3717 77.1046 3.61353 71.8641 5.40176 66.7478C7.26451 61.2837 9.87235 57.0615 14.6658 53.6837C16.8763 52.0942 19.3599 50.9765 21.8933 50.0824C22.7129 49.7595 23.5573 49.4118 24.4514 49.1634L24.6998 49.3373V49.3125C24.6998 49.1883 24.4514 49.1138 24.5259 49.1386V49.1138C24.5508 49.0641 24.6005 49.0393 24.6253 48.9896C24.8985 48.6916 25.2959 48.5922 25.6933 48.5674C26.1155 48.5177 26.5377 48.468 26.9848 48.4183C28.6985 48.2197 30.4371 48.17 32.1756 48.3438C33.9142 48.5425 35.5782 48.8654 37.2671 49.238C39.7011 49.7844 42.1103 50.5791 44.4946 51.2994L44.5691 51.3242H44.5939C44.5939 51.3242 44.6188 51.3242 44.5939 51.3242C44.5939 51.3242 44.5691 51.3242 44.5442 51.3242C44.5194 51.3242 44.4946 51.3242 44.4697 51.3491H44.6436C47.922 52.2183 50.7534 54.1059 53.4854 56.068C54.8266 57.0615 56.1429 58.0798 57.4344 59.1478C58.7756 60.1909 59.8188 61.6314 60.6384 63.1216C62.2527 66.0772 63.2462 69.3308 64.0161 72.5844C64.7116 75.6393 65.2083 78.7438 65.5312 81.8484L65.556 82.1713L65.5809 82.3203V82.3948C65.5312 82.6183 65.4567 82.8419 65.3573 82.9661ZM64.4135 82.0968C64.3142 82.1961 64.2148 82.3948 64.2397 82.519V82.4942V82.4197V82.2706C63.8175 77.4772 63.0227 72.6837 61.5325 68.1138C60.5142 65.1334 59.1978 61.9791 56.7142 59.9674C54.2057 57.8811 51.5978 55.8197 48.7665 54.1804C47.3508 53.3857 45.8854 52.6654 44.3704 52.268L44.7429 52.2432C44.6933 52.2929 44.4697 52.2929 44.4449 52.268C42.9795 51.97 40.9678 51.2 39.5273 50.7282C37.5155 50.0576 35.4292 49.7099 33.3181 49.536C31.2318 49.3373 29.1456 49.5112 27.0841 49.7347C26.6619 49.7844 26.2397 49.8092 25.8423 49.8589C25.3952 49.9582 24.9233 49.9334 24.5259 49.6105C24.5259 49.6105 24.5259 49.6105 24.5011 49.6105H24.4763C24.5259 49.6353 24.2776 49.5608 24.3024 49.4367V49.4118L24.5508 49.5857C23.7063 49.8092 22.9116 50.2066 22.0671 50.5295C21.2475 50.8772 20.4031 51.1504 19.5835 51.5229C16.3795 52.9634 13.4488 55.0994 11.139 57.7817C8.77954 60.4393 7.38869 63.7177 6.27104 67.0706C4.60699 72.1125 3.46451 77.3778 2.71941 82.6183L2.0985 81.8981C20.105 81.9229 46.1338 81.9974 64.4135 82.0968Z" fill="black"/>
<path d="M57.7568 70.2002C57.7568 70.2002 57.0117 72.0133 57.2352 73.8263C57.4588 75.6394 58.1045 78.2969 57.1855 82.544" stroke="#544D4D" stroke-width="0.175385" stroke-miterlimit="10" stroke-linecap="round" stroke-linejoin="round"/>
<path d="M20.1297 50.306C20.6016 50.157 21.4212 50.306 21.6696 50.7283C22.6382 52.3178 24.9728 56.9622 25.9415 66.1766C26.7114 73.3792 25.5441 86.3439 25.5441 86.3439L1.42773 85.2015C1.42773 85.2015 3.93623 76.2603 6.04734 68.0642C7.18983 63.6433 7.56238 57.2603 10.7166 54.9008C13.25 53.0132 16.4042 51.5975 20.1297 50.306Z" fill="black"/>
<path d="M45.1152 51.8211C45.1152 51.8211 52.7897 66.2512 50.5545 85.5244H67.1205C67.1205 85.5244 66.5244 83.4133 64.4381 74.5466C62.6002 66.7976 60.7375 60.1414 58.8002 58.3283C53.7335 53.5597 46.5558 51.2002 46.5558 51.2002C46.5558 51.2002 45.7361 51.5976 45.1152 51.8211Z" fill="black"/>
<path d="M45.1156 51.8209L44.5195 51.6471C44.5195 51.6471 45.3888 51.2248 45.7614 50.9765L45.9849 50.8523C45.9849 50.8523 47.177 51.3987 47.5993 51.5974C48.0215 51.7961 46.1339 52.715 46.1339 52.715C46.1339 52.715 45.1901 51.8458 45.1156 51.8209Z" fill="#7E5D6D"/>
<path d="M25.668 63.8667C25.668 63.8667 24.8235 61.4575 22.9111 59.3216C21.1477 57.3347 17.9189 54.2549 17.6954 53.5595C17.5464 53.0876 17.7451 52.2183 18.1921 51.2C19.1359 49.0392 21.247 46.2079 24.0287 44.9412C30.7843 42.5569 31.8274 46.8039 31.9268 48.1451C31.9516 48.5177 24.5255 50.1321 24.5503 50.5046V50.5294C24.5503 50.5294 23.4078 50.902 24.2274 56.5896C24.4261 57.9804 25.2954 60.4144 25.668 63.8667Z" fill="white"/>
<path d="M25.7419 64.2393C25.5681 64.2641 25.3445 64.14 25.2949 63.9661L25.27 63.9164L25.2452 63.8419C24.7236 62.5256 24.0034 61.2838 23.1341 60.1661C21.3707 57.9805 19.1851 56.2171 17.4962 53.957C17.4465 53.8824 17.3968 53.8079 17.372 53.7086C17.1485 52.9387 17.4713 52.119 17.7197 51.4236C18.9367 48.5426 21.0478 45.9596 23.904 44.6184C24.6243 44.37 25.3942 44.1465 26.1642 44.0223C27.704 43.7491 29.4923 43.8236 30.7589 44.8916C31.7276 45.7112 32.2243 46.9034 32.3485 48.1452C32.3733 48.3936 32.1249 48.5674 31.9511 48.6668C29.7406 49.5112 27.1576 49.9086 24.9472 50.7282C24.9223 50.753 24.8727 50.753 24.8727 50.7779C24.8727 50.7779 24.8727 50.7779 24.9223 50.7282C24.9472 50.6785 24.9968 50.604 24.9968 50.5295C24.9968 50.4798 24.9968 50.5543 24.9968 50.5543L24.7485 50.9021C24.7733 50.9021 24.7981 50.8772 24.7981 50.8772C24.7981 50.8772 24.7733 50.9021 24.7733 50.9269C24.5498 51.2746 24.5001 51.7217 24.4504 52.1439C24.3759 52.9635 24.4008 53.8079 24.4753 54.6275L24.5498 55.472C24.6988 57.1857 25.2204 58.7504 25.5681 60.4393C25.7419 61.2838 25.891 62.1282 26.0151 62.9726C26.04 63.1465 26.0648 63.37 26.0648 63.5687C25.9655 63.7922 25.8413 64.0158 25.7419 64.2393ZM25.5929 63.4942C25.5184 63.3949 25.3694 63.3204 25.27 63.3204C25.2452 63.3204 25.2204 63.2955 25.2204 63.2707L25.1955 63.072C24.9223 60.8119 24.1772 58.6759 23.8047 56.3909C23.755 55.9687 23.6557 55.0994 23.606 54.6772C23.5315 53.3609 23.3825 51.9452 23.9289 50.6785C24.053 50.455 24.1276 50.2811 24.4256 50.157L24.1524 50.5295C24.1524 50.5047 24.1524 50.4798 24.1524 50.4798C24.1524 50.3308 24.3014 50.157 24.4008 50.0824C25.0713 49.7347 25.7916 49.5857 26.5119 49.3622C28.1014 48.8903 30.138 48.4681 31.653 47.872C31.653 47.872 31.653 47.872 31.6034 47.9217L31.5785 47.9465C31.5537 47.9713 31.5289 48.021 31.5289 48.0707C31.5289 48.0955 31.5289 48.1452 31.5289 48.1452C31.4544 47.1269 31.0073 46.0589 30.2125 45.4132C29.1197 44.4942 27.6047 44.4694 26.2387 44.6929C25.5681 44.7923 24.6988 45.0655 24.1524 45.2393C22.3642 46.0341 20.8491 47.4001 19.657 48.9648C18.7877 50.157 17.9681 51.4981 17.7694 52.9635C17.67 53.4851 18.0426 53.8328 18.3406 54.2053C19.4831 55.5217 21.321 57.3099 22.538 58.5766C23.9537 60.0171 25.1459 61.7308 25.9406 63.5687L25.9655 63.6184C25.9655 63.5439 25.7419 63.4445 25.5929 63.4942Z" fill="black"/>
<path d="M49.4626 64.6367C49.4626 64.6367 47.7986 58.1792 46.979 56.1177C46.1594 54.0811 44.6195 51.7713 44.545 51.6471C42.1855 47.8223 42.26 46.1582 43.0299 45.4877C43.7999 44.8171 45.6626 44.9413 49.0901 47.9465C49.711 48.6419 53.4116 52.8145 53.809 55.0994C54.0326 56.3661 53.3371 57.2602 52.3933 58.5765C51.4247 59.9177 50.2326 61.6811 49.4626 64.6367Z" fill="white"/>
<path d="M49.4619 64.6366C48.6174 61.9046 47.8475 59.0981 46.8292 56.4157C46.1834 54.851 45.2645 53.3856 44.3207 51.97C43.4017 50.4549 42.4331 48.8902 42.1847 47.102C41.9612 45.4131 43.1782 44.4445 44.7926 44.8667C46.556 45.3386 47.9717 46.5307 49.3128 47.6732C50.4056 48.8902 51.4488 50.132 52.3926 51.4981C53.5351 53.2615 55.0004 55.3229 53.5847 57.3595C52.939 58.3778 52.1194 59.2967 51.4736 60.315C50.6043 61.6562 49.9337 63.0967 49.4619 64.6366ZM49.4619 64.2641C49.4122 64.1399 49.3377 64.115 49.288 64.0405C49.3625 63.817 49.437 63.5935 49.5115 63.3948C52.6409 55.3477 57.5089 57.6575 48.7913 48.2196C47.6985 47.3007 46.1586 46.034 44.6187 45.6366C43.5011 45.3634 42.8056 45.8601 42.9547 47.0275C43.4017 49.8588 45.5128 52.0693 46.705 54.6026C47.773 56.6889 48.2945 58.9739 48.9403 61.2092C49.0893 61.7556 49.4867 63.1961 49.6109 63.7177C49.6605 63.8915 49.7599 64.2641 49.8096 64.4628V64.4876C49.7599 64.3386 49.5612 64.2392 49.4619 64.2641Z" fill="black"/>
<path d="M43.452 58.9988C42.9304 61.557 39.5526 63.0969 33.865 60.7871C27.9539 58.4028 25.3958 52.7152 24.75 51.0263C28.252 44.4694 25.818 39.9243 25.818 39.9243C33.8899 39.2289 40.9435 48.6668 40.9435 48.6668L42.0363 53.3361C42.1356 53.7335 42.3343 54.0812 42.6324 54.3296C43.1539 55.2485 43.7748 57.3596 43.452 58.9988Z" fill="white"/>
<path d="M24.6266 51.1008C25.0984 50.3805 25.3965 49.5361 25.5952 48.7165C25.9677 47.0027 26.0919 45.2642 26.1167 43.5256V42.8799C26.0422 42.2341 25.8187 41.5635 25.5703 40.9674C25.2475 40.1727 26.4148 39.6759 26.7873 40.4707C26.837 40.5701 26.837 40.7439 26.837 40.8433C26.9115 44.221 27.0605 48.5674 24.9246 51.374C24.7756 51.523 24.4775 51.2995 24.6266 51.1008Z" fill="black"/>
<path d="M41.2171 48.6171C41.5896 48.8406 41.7138 49.1387 41.7635 49.4367C41.9125 50.0328 41.8628 50.6786 42.0118 51.2995C42.136 51.8955 42.5086 52.4668 42.6079 53.0877C42.7321 53.7335 43.1047 55.0995 43.2537 55.7701C43.3034 55.9191 43.204 56.0929 43.0301 56.1178C42.9308 56.1426 42.8563 56.1178 42.7818 56.0681C42.4589 55.7949 42.3099 55.5217 42.1112 55.174C41.7883 54.5779 41.5648 54.0315 41.3661 53.3609C41.1922 52.7648 41.2668 52.1191 41.1177 51.4982C40.9936 50.9021 40.6458 50.3308 40.5217 49.7099C40.4471 49.4119 40.4223 49.089 40.6458 48.7165C40.7949 48.5674 41.0432 48.5178 41.2171 48.6171Z" fill="black"/>
<path d="M43.0067 55.1739C38.263 54.9255 34.3884 53.4353 30.6133 46.7046C33.7924 49.5111 37.5427 50.5791 41.4917 51.0758L42.0133 53.3608C42.1126 53.7582 42.7087 54.9255 43.0067 55.1739Z" fill="black"/>
<path d="M42.8081 54.255C43.6525 55.8446 44.1493 57.8315 43.6277 59.5949C43.2303 60.8367 42.0878 61.7557 40.846 62.1034C37.965 62.8733 34.6369 61.6563 32.0787 60.2903C28.9244 58.5269 26.5898 55.5714 25.0996 52.3426C25.0003 52.0942 25.348 51.8956 25.497 52.1439C26.0186 53.1871 26.6146 54.2054 27.2852 55.1243C27.9558 56.0681 28.7257 56.9374 29.595 57.7073C32.1284 59.9923 35.5558 61.408 38.9833 61.408C42.5101 61.3086 43.8512 59.4459 43.0316 56.0184C42.9074 55.472 42.7087 54.9008 42.4355 54.4289C42.2865 54.2302 42.6591 54.0067 42.8081 54.255Z" fill="black"/>
<path d="M52.4188 24.4262C52.8659 26.5124 53.0894 28.2013 51.8724 33.7647C50.6803 39.3033 52.9901 44.8915 47.1287 49.983C43.1796 53.4105 36.2751 54.0562 30.7613 50.3059C28.8986 49.0392 28.4019 43.1281 26.9365 40.868C26.3156 39.9242 25.943 41.4392 24.5273 39.8745C22.5653 37.7386 20.2058 33.4418 21.3731 25.8418C23.2607 13.5229 33.0215 12.0824 40.2489 13.4484C47.5012 14.8144 51.2267 18.9373 52.4188 24.4262Z" fill="white"/>
<path d="M25.7441 42.0602C25.1729 41.1164 24.4526 40.2968 23.7821 39.4275C22.7886 38.0863 22.0435 36.5465 21.5468 34.9569C19.4108 28.1517 20.5533 19.285 26.8618 15.038C32.6984 11.089 43.85 12.2811 48.9664 17.0497C51.5245 19.3595 52.9402 22.7125 53.2383 26.0903C53.3873 28.3504 52.8409 30.536 52.369 32.7216C51.8226 34.8576 51.6984 36.9935 51.6984 39.204C51.6736 41.4144 51.5742 43.7242 50.7298 45.8105C49.4383 48.9896 46.7311 51.5726 43.4775 52.6654C39.2056 54.1556 34.1638 53.3112 30.6618 50.455C30.5128 50.3308 30.6618 50.1321 30.8356 50.2066C35.4304 52.8144 41.4657 53.2615 45.9363 50.2563C48.5938 48.468 50.4317 45.6367 50.8539 42.4576C51.2017 40.2968 51.1023 38.1112 51.301 35.9256C51.3755 34.9569 51.6487 33.6157 51.8474 32.6471C52.1455 31.0327 52.3441 29.4184 52.3193 27.804C52.2945 26.2144 51.9468 24.6497 51.4749 23.1347C49.8356 17.7452 45.1415 14.5661 39.7271 13.6968C31.6304 12.2811 24.552 15.2863 22.4409 23.7059C21.5219 27.8288 20.8017 32.3739 22.5402 36.3726C23.1611 37.8876 24.1794 39.1791 25.3468 40.2968L26.4892 41.5138C26.986 42.0105 26.1415 42.6563 25.7441 42.0602Z" fill="black"/>
<path d="M28.6742 34.1621C28.6742 34.1621 27.9043 30.4366 24.2781 30.8837C21.1487 31.2811 20.0559 38.7817 27.1592 40.868" fill="white"/>
<path d="M26.8356 37.6144C26.2644 37.2916 25.867 36.7452 25.8421 36.0746C25.867 35.5778 25.9415 35.0066 25.8173 34.5099C25.7428 34.038 25.2461 33.9138 24.8735 33.9386C24.4761 34.0131 24.2278 34.5099 24.1532 34.9073C24.1532 34.9321 24.1284 35.0066 24.1284 35.0314C24.1036 35.1556 23.9049 35.1556 23.8552 35.0314C23.5323 34.0628 24.2526 32.9948 25.2957 33.119C26.7611 33.2184 26.9598 34.7582 26.6866 35.9256C26.5376 36.4223 26.7363 36.8693 27.0095 37.2916L27.0591 37.3661C27.1833 37.5151 26.9846 37.7138 26.8356 37.6144Z" fill="black"/>
<path d="M46.7071 31.5294C47.0797 33.2928 47.7751 34.932 48.6444 36.4719C49.4143 38.3595 47.4274 40.1477 45.664 40.0732C45.4653 40.0732 45.4405 39.8 45.6143 39.7503C46.732 39.4026 47.7503 38.6575 47.9241 37.515C47.9986 37.1673 47.8993 36.8693 47.7254 36.5712C46.9058 35.0314 46.4091 33.268 46.5333 31.5294C46.5333 31.4052 46.7071 31.4052 46.7071 31.5294Z" fill="black"/>
<path d="M28.5505 34.187C27.9793 32.7216 26.7374 31.3308 25.0734 31.3556C24.9244 31.3308 24.676 31.3805 24.527 31.3805C24.1048 31.4053 23.7571 31.5543 23.4342 31.8524C21.8446 33.4419 22.1178 36.2484 23.4093 38.0118C23.8564 38.6328 24.4276 39.1792 25.0734 39.6262C25.7191 40.0733 26.4394 40.421 27.2093 40.719C27.3832 40.7687 27.3087 41.0419 27.1348 41.0171C25.4708 40.6694 23.8812 39.8497 22.7884 38.4837C21.0995 36.4471 20.7518 33.0445 22.7636 31.0576C23.2107 30.6602 23.8316 30.3622 24.4525 30.3622C24.6512 30.3622 24.9492 30.3125 25.1479 30.3622C26.191 30.4118 27.1845 30.9334 27.8303 31.753C28.4015 32.4484 28.7244 33.2929 28.8237 34.1373C28.8237 34.2863 28.6002 34.336 28.5505 34.187Z" fill="black"/>
<path d="M44.2443 42.4574C44.2691 42.8548 43.9711 43.5502 43.4247 44.047C40.6182 42.3333 39.3515 43.2274 39.3515 43.2274C38.358 41.7123 38.5816 39.6509 40.9907 41.2156C42.6548 42.3084 43.6979 42.4823 44.2443 42.4574Z" fill="black"/>
<path d="M43.3994 44.0718C42.8033 44.5934 41.9092 44.9162 40.6922 44.4195C40.1209 44.196 39.6739 43.7489 39.3262 43.2522C39.351 43.2522 40.5928 42.3581 43.3994 44.0718Z" fill="white"/>
<path d="M44.7166 42.3828C44.7166 42.3828 43.6735 42.9541 40.9911 41.2403C37.7872 39.1789 38.4329 43.5005 40.6931 44.4194C43.0526 45.388 44.2696 43.2769 44.2447 42.4822" stroke="black" stroke-width="0.175385" stroke-miterlimit="10" stroke-linecap="round" stroke-linejoin="round"/>
<path d="M39.3516 43.2522C39.3516 43.2522 40.6182 42.3581 43.4248 44.0718" stroke="black" stroke-width="0.175385" stroke-miterlimit="10" stroke-linecap="round" stroke-linejoin="round"/>
<path d="M37.4406 34.0627C36.8445 34.0379 36.3975 33.5412 36.4471 32.9451L36.472 32.2497C36.4968 31.6536 36.9935 31.2065 37.5896 31.2562C38.1857 31.281 38.6327 31.7778 38.5831 32.3739L38.5582 33.0693C38.5334 33.6405 38.0367 34.0876 37.4406 34.0627Z" fill="black"/>
<path d="M47.896 34.4352C47.3496 34.4104 46.9274 33.9385 46.9522 33.3921L46.977 32.7463C47.0019 32.1999 47.4738 31.7777 48.0202 31.8026C48.5666 31.8274 48.9888 32.2993 48.964 32.8457L48.9391 33.4914C48.9143 34.0378 48.4424 34.4601 47.896 34.4352Z" fill="black"/>
<path d="M39.675 32.7217C38.8554 32.1753 37.9613 31.8028 36.9678 32.0014C36.6449 32.0511 36.3221 32.1505 36.1234 32.374C36.0489 32.4733 35.875 32.4485 35.875 32.2995C35.8998 31.8028 36.3221 31.4799 36.7194 31.2812C37.4894 30.8838 38.5574 30.9583 39.2528 31.4799C39.5011 31.6289 40.3456 32.5479 39.8985 32.7465C39.7992 32.7962 39.7495 32.7714 39.675 32.7217Z" fill="black"/>
<path d="M46.7793 32.8459C46.7793 31.8028 48.0708 31.4302 48.8656 31.8028C49.3126 32.0015 49.6355 32.3988 49.7597 32.8707C49.8094 33.0197 49.5858 33.1439 49.4865 33.0198C49.0643 32.523 48.344 32.2747 47.7728 32.5727C47.5989 32.672 47.5741 32.7465 47.5244 32.8459C47.5244 33.3426 46.8041 33.3178 46.7793 32.8459Z" fill="black"/>
<path d="M40.8676 28.6236C41.3892 28.7974 41.9108 28.3255 41.8114 27.7543C41.7617 27.4562 41.6376 27.1582 41.3892 26.9347C40.6441 26.2641 37.5644 25.668 35.7016 26.5373C34.0624 27.332 38.4833 27.8288 40.8676 28.6236Z" fill="black"/>
<path d="M48.2932 29.021C47.871 29.17 47.4239 28.723 47.4984 28.2014C47.5233 27.9282 47.6226 27.655 47.8213 27.4563C48.4174 26.8602 50.454 26.3883 51.7455 27.3073C52.8631 28.0772 50.2305 28.3008 48.2932 29.021Z" fill="black"/>
<path d="M55.6224 26.0903C54.927 28.2511 53.2629 30.0641 52.195 31.2811C52.4433 30.1138 52.2198 29.4184 52.2695 28.5988C52.344 27.4811 52.7414 26.2393 52.6669 25.7426C52.6172 25.2955 52.5178 24.8733 52.4185 24.4262C52.2943 23.8798 52.1453 23.3582 51.9714 22.8367C48.0721 26.6367 41.391 22.8864 41.391 22.8864C41.391 22.8864 39.9754 24.0537 37.4917 23.7805C34.8342 23.5073 34.1139 21.8681 34.1139 21.8681C33.3937 26.885 28.6499 24.9726 29.5192 29.9648C29.7675 31.3308 29.7675 32.6471 28.6002 34.0131C28.4015 33.3177 27.4329 30.4864 24.2538 30.8837C21.2486 31.2563 20.1061 38.2105 26.3152 40.5948C26.2407 42.9047 26.4891 46.0341 26.2407 45.2145C24.5022 39.8498 21.025 40.6942 19.3858 36.6458C18.6159 34.7086 18.7401 32.9948 19.1375 31.7282C19.5348 30.5112 19.51 29.1948 19.1126 27.9779C18.6656 26.5622 18.3178 24.4262 19.1375 21.8432C20.5283 17.4223 23.5087 16.404 24.2786 15.8824C25.0486 15.3609 24.676 10.5922 30.0656 9.10204C34.3623 7.90988 37.591 10.4184 38.5348 10.2445C39.4786 10.0707 46.0852 5.72426 51.1767 9.8223C56.0943 13.7962 54.2564 18.4903 54.2564 18.4903C54.2564 18.4903 57.3113 20.8498 55.6224 26.0903Z" fill="black"/>
</g>
<defs>
<clipPath id="clip0_710_12911">
<rect width="72" height="72" rx="36" fill="white"/>
</clipPath>
</defs>
</svg>
